<?xml version="1.0" standalone="no"?>
<!DOCTYPE svg PUBLIC "-//W3C//DTD SVG 20010904//EN"
 "http://www.w3.org/TR/2001/REC-SVG-20010904/DTD/svg10.dtd">
<svg version="1.0" xmlns="http://www.w3.org/2000/svg"
 width="50" height="50" viewBox="0 0 1224.000000 687.000000"
 preserveAspectRatio="xMidYMid meet" style="background-color: white" >

<g transform="translate(0.000000,687.000000) scale(0.100000,-0.100000)"
fill="#135cbd" stroke="none">
<path d="M6175 6808 c-27 -17 -70 -42 -94 -56 -25 -14 -83 -49 -130 -78 -48
-29 -117 -71 -156 -93 -38 -22 -113 -66 -165 -98 l-95 -59 -3 -491 -2 -490 42
-16 c24 -8 81 -29 128 -45 47 -17 126 -45 175 -63 50 -18 96 -39 103 -47 9
-12 12 -209 12 -909 0 -674 3 -893 12 -893 25 0 214 54 225 64 10 9 13 360 13
1656 0 905 -3 1646 -7 1647 -5 2 -30 -12 -58 -29z"/>
<path d="M6359 6513 c-3 -21 3 -2939 7 -2944 4 -8 55 1 69 11 7 6 10 503 10
1456 l0 1447 -30 18 c-32 19 -54 23 -56 12z"/>
<path d="M6567 6433 c-10 -9 -9 -2811 1 -2817 4 -2 24 1 45 7 l37 12 2 1375
c2 756 2 1380 0 1386 -2 6 -19 18 -38 27 -40 19 -39 19 -47 10z"/>
<path d="M6930 5877 l-95 -42 -6 -50 c-9 -77 0 -2088 9 -2097 11 -11 214 49
227 66 7 9 10 386 10 1087 l0 1074 -25 2 c-14 1 -68 -17 -120 -40z"/>
<path d="M7197 5593 c-2 -5 -5 -443 -5 -975 l-1 -967 31 -36 c18 -19 37 -35
43 -35 8 0 10 258 7 983 -2 540 -5 987 -7 992 -4 14 -63 47 -68 38z"/>
<path d="M7400 4883 c0 -340 -3 -795 -7 -1011 l-6 -393 38 -39 c22 -22 44 -40
51 -40 9 0 11 78 9 328 -1 180 -3 643 -4 1029 l-1 701 -34 21 c-18 12 -36 21
-40 21 -3 0 -6 -278 -6 -617z"/>
<path d="M5427 5403 c-4 -3 -7 -428 -7 -943 0 -734 3 -940 13 -952 6 -9 62
-41 122 -71 l110 -55 60 14 c128 29 188 50 196 70 4 10 8 411 8 891 0 670 -3
874 -12 881 -7 5 -28 15 -47 20 -31 10 -148 52 -190 69 -33 13 -235 83 -241
83 -3 0 -9 -3 -12 -7z"/>
<path d="M7600 4345 l0 -1054 31 -36 c34 -38 53 -44 63 -19 8 21 8 1960 0
2056 -7 75 -7 75 -44 92 -20 9 -40 16 -43 16 -4 0 -7 -475 -7 -1055z"/>
<path d="M5240 5112 l-22 -18 -4 -737 -4 -736 39 -27 c22 -14 45 -23 50 -19 8
4 11 247 11 781 l0 774 -24 0 c-13 0 -34 -8 -46 -18z"/>
<path d="M5038 5033 l-28 -14 0 -676 c0 -639 1 -675 18 -668 9 4 29 7 45 6
l27 -1 0 685 c0 646 -1 685 -17 684 -10 -1 -30 -8 -45 -16z"/>
<path d="M4835 4951 l-30 -18 -7 -294 c-9 -365 0 -1133 13 -1137 5 -2 27 14
49 36 l40 40 -2 693 c-3 763 1 718 -63 680z"/>
<path d="M6750 3569 c-168 -43 -323 -83 -345 -88 -22 -5 -157 -38 -300 -74
-143 -36 -273 -68 -288 -71 -37 -9 -28 -20 51 -59 37 -19 110 -57 162 -84 341
-179 408 -213 418 -213 6 0 58 39 114 86 308 259 491 409 502 412 7 1 31 -12
54 -30 50 -40 420 -351 590 -498 157 -134 161 -136 229 -121 29 7 55 16 58 21
3 4 -21 32 -53 61 l-57 52 -5 106 -5 106 -60 2 c-63 1 -75 -5 -75 -44 0 -14
-6 -23 -15 -23 -9 0 -98 71 -199 158 -368 316 -447 382 -459 381 -7 -1 -149
-37 -317 -80z"/>
<path d="M4935 3539 c-61 -50 -121 -101 -135 -113 -14 -12 -56 -48 -95 -80
-38 -33 -97 -83 -130 -111 -344 -295 -468 -396 -480 -391 -11 4 -15 37 -17
153 l-3 148 -185 0 -185 0 -5 -328 c-4 -282 -7 -330 -21 -340 -17 -14 -384
-323 -558 -471 -168 -143 -140 -133 -359 -135 -103 -1 -284 -6 -402 -11 -118
-5 -327 -12 -465 -15 -409 -8 -647 -17 -674 -26 -44 -15 1883 2 1956 17 20 4
211 159 583 474 147 124 296 249 745 625 138 115 309 259 380 320 72 61 136
114 142 118 18 11 47 -7 153 -97 53 -45 118 -99 145 -121 26 -22 99 -83 160
-135 61 -52 286 -241 500 -420 213 -179 508 -426 654 -548 363 -305 396 -332
413 -332 8 0 46 26 84 58 38 32 182 152 319 267 138 115 363 304 501 420 325
275 307 262 336 243 13 -9 106 -87 208 -173 339 -288 799 -673 825 -691 28
-18 189 -22 1155 -29 529 -4 820 -3 810 3 -8 6 -221 15 -480 21 -912 23 -1367
39 -1386 50 -11 5 -100 79 -199 163 l-180 154 -3 209 c-1 133 -6 213 -13 222
-15 17 -210 18 -227 1 -8 -8 -12 -46 -12 -105 0 -51 -4 -93 -8 -93 -12 0 -99
69 -311 248 -100 83 -190 152 -199 152 -19 0 -237 -45 -722 -149 -80 -18 -210
-45 -290 -62 -80 -16 -157 -32 -172 -35 -20 -5 -75 19 -245 106 -245 127 -652
338 -788 410 -49 26 -162 85 -250 130 -88 46 -203 105 -255 133 -52 27 -174
90 -270 140 -96 49 -184 96 -195 104 -11 7 -24 13 -30 13 -6 0 -60 -41 -120
-91z"/>
<path d="M6972 2992 c-8 -6 -12 -23 -10 -43 3 -32 5 -34 43 -34 l40 0 0 40 c0
37 -2 40 -30 43 -16 1 -36 -2 -43 -6z"/>
<path d="M7094 2976 c-3 -8 -4 -25 -2 -38 3 -20 9 -23 43 -23 39 0 40 1 43 38
l3 37 -41 0 c-26 0 -43 -5 -46 -14z"/>
<path d="M6972 2858 c-17 -17 -15 -63 2 -77 8 -7 27 -11 43 -9 30 3 40 29 29
74 -5 18 -13 24 -34 24 -15 0 -33 -5 -40 -12z"/>
<path d="M7107 2863 c-26 -7 -20 -86 6 -91 54 -10 85 25 67 74 -9 24 -29 28
-73 17z"/>
<path d="M4815 2180 c-10 -17 -14 -183 -4 -202 8 -15 23 -18 97 -18 137 0 131
-5 127 110 -2 55 -6 104 -10 110 -8 13 -202 14 -210 0z"/>
<path d="M5117 2184 c-4 -4 -7 -53 -7 -110 0 -118 -10 -109 125 -109 l90 0 0
110 0 110 -101 3 c-55 1 -103 0 -107 -4z"/>
<path d="M8152 1928 c-14 -14 -16 -76 -3 -96 5 -9 25 -12 57 -10 l49 3 3 43
c2 24 -2 50 -9 58 -14 17 -80 19 -97 2z"/>
<path d="M8311 1926 c-7 -8 -11 -34 -9 -58 l3 -43 55 0 55 0 6 45 c5 35 3 48
-9 58 -21 16 -87 15 -101 -2z"/>
<path d="M4845 1893 c-11 -3 -24 -10 -30 -17 -14 -18 -11 -194 3 -208 13 -13
192 -12 205 1 4 4 9 47 12 96 6 125 -2 135 -98 134 -39 -1 -81 -3 -92 -6z"/>
<path d="M5125 1886 c-16 -12 -19 -26 -18 -111 1 -54 6 -102 11 -107 5 -5 53
-7 108 -6 l99 3 3 104 c2 67 -1 108 -9 117 -16 19 -168 19 -194 0z"/>
<path d="M8144 1755 c-3 -14 -3 -40 0 -59 6 -31 10 -34 49 -39 54 -5 69 12 65
73 l-3 45 -52 3 c-49 3 -53 1 -59 -23z"/>
<path d="M8307 1774 c-10 -10 -9 -86 1 -102 15 -23 75 -26 99 -5 18 15 20 25
15 63 l-7 45 -50 3 c-28 2 -54 0 -58 -4z"/>
<path d="M592 1193 c-18 -65 -32 -123 -32 -129 0 -11 42 -34 64 -34 7 0 23 23
37 51 24 52 72 99 101 99 9 0 18 -13 22 -31 10 -50 7 -425 -3 -452 -7 -17 -21
-28 -41 -32 -30 -7 -31 -9 -28 -53 l3 -47 142 -3 141 -3 7 40 c8 46 2 61 -25
61 -47 0 -50 17 -50 253 0 232 4 267 26 267 24 0 81 -59 103 -106 20 -42 24
-45 49 -39 53 13 55 23 27 121 -46 159 -43 154 -75 154 -16 0 -32 -4 -35 -10
-4 -6 -72 -10 -171 -10 -103 0 -164 4 -164 10 0 6 -15 10 -33 10 l-32 0 -33
-117z"/>
<path d="M8595 1298 c-16 -44 -65 -216 -65 -230 0 -9 13 -21 31 -27 45 -16 46
-15 59 25 15 44 82 114 110 114 20 0 20 -5 18 -252 l-3 -252 -33 -10 c-32 -9
-33 -11 -30 -55 l3 -46 140 0 140 0 3 48 c3 41 1 47 -17 47 -11 0 -27 7 -35
16 -14 14 -16 48 -14 257 3 213 5 242 19 245 25 5 77 -45 105 -99 26 -53 30
-55 69 -37 29 13 31 33 11 104 -8 27 -21 75 -30 107 -15 53 -19 57 -46 57 -16
0 -32 -4 -35 -10 -4 -6 -72 -10 -170 -10 -98 0 -166 4 -170 10 -9 14 -55 12
-60 -2z"/>
<path d="M10060 1307 c0 -3 -56 -197 -64 -225 -6 -16 0 -24 23 -36 43 -23 47
-21 71 29 25 51 84 108 108 103 15 -3 17 -30 20 -251 3 -263 4 -254 -45 -261
-14 -2 -19 -13 -21 -55 l-3 -52 143 3 143 3 3 46 c3 46 3 47 -33 53 l-35 7 0
254 c0 247 1 255 20 255 26 0 81 -56 104 -108 20 -45 30 -49 71 -30 32 14 31
28 -8 158 -28 92 -35 105 -56 108 -13 2 -28 -1 -34 -7 -14 -14 -333 -15 -342
-1 -5 8 -65 15 -65 7z"/>
<path d="M4261 1289 c-145 -44 -227 -189 -219 -388 3 -82 8 -106 35 -163 35
-75 90 -135 148 -163 61 -29 158 -26 223 6 l52 26 15 -24 c13 -20 23 -24 53
-21 l37 3 5 130 c3 72 9 136 13 143 5 6 19 12 33 12 24 0 25 3 22 48 l-3 47
-142 3 -143 3 0 -51 c0 -49 1 -50 30 -50 38 0 54 -29 47 -88 -12 -108 -148
-122 -214 -23 -33 49 -45 104 -45 206 0 107 18 161 70 206 32 28 40 31 84 27
57 -6 102 -42 140 -114 25 -47 33 -51 73 -32 31 14 31 32 2 158 -25 103 -37
115 -83 86 -22 -15 -27 -15 -54 -1 -38 20 -135 27 -179 14z"/>
<path d="M5287 1286 c-89 -25 -172 -116 -203 -224 -25 -85 -16 -240 18 -314
32 -68 98 -142 153 -171 63 -32 164 -30 237 6 60 29 129 98 157 156 15 32 15
33 -12 57 -16 13 -31 24 -35 24 -4 -1 -19 -18 -33 -39 -43 -62 -93 -94 -152
-98 -67 -5 -108 19 -140 84 -92 183 -32 413 106 413 65 0 110 -37 155 -127 12
-23 26 -44 32 -48 13 -8 70 22 70 38 0 6 -12 63 -26 125 -28 123 -39 136 -84
110 -23 -13 -30 -13 -53 -2 -39 21 -135 26 -190 10z"/>
<path d="M5950 1291 c-140 -46 -225 -163 -237 -328 -11 -141 29 -257 116 -335
78 -70 191 -92 306 -59 69 20 153 104 185 186 34 84 34 253 1 336 -28 73 -90
143 -154 175 -54 28 -170 41 -217 25z m173 -152 c43 -52 60 -126 55 -238 -4
-78 -10 -106 -32 -148 -57 -114 -181 -111 -238 5 -20 41 -23 62 -23 162 0 105
2 120 27 170 35 71 67 92 133 87 41 -4 54 -10 78 -38z"/>
<path d="M1413 1278 c-5 -7 -52 -145 -104 -307 -88 -276 -96 -294 -121 -303
-23 -8 -28 -16 -28 -43 0 -64 1 -65 120 -65 118 0 120 1 120 61 0 24 -6 32
-30 40 -33 12 -37 29 -19 92 l10 37 90 0 c99 0 96 2 114 -78 6 -30 4 -33 -25
-43 -29 -11 -31 -14 -28 -58 l3 -46 138 -3 137 -3 0 49 c0 42 -3 50 -24 60
-21 9 -35 44 -101 249 -42 131 -86 267 -98 303 l-22 65 -61 3 c-41 2 -64 -1
-71 -10z m71 -284 c25 -92 24 -94 -34 -94 -27 0 -50 4 -50 8 0 4 9 37 21 73
11 35 23 70 25 78 7 23 20 1 38 -65z"/>
<path d="M1830 1240 c0 -43 3 -50 19 -50 48 0 51 -16 51 -260 0 -126 -3 -235
-6 -244 -3 -9 -16 -16 -29 -16 -33 0 -44 -20 -38 -68 l6 -43 116 3 116 3 3 48
c3 44 1 47 -20 47 -45 0 -48 13 -48 212 0 119 4 188 10 188 6 0 10 -4 10 -10
0 -5 18 -51 39 -102 22 -51 67 -158 100 -238 l60 -145 58 0 58 0 5 303 c5 321
5 321 53 322 15 0 18 7 15 48 l-3 47 -115 0 -115 0 -3 -45 c-3 -44 -2 -46 30
-55 l33 -10 3 -137 c1 -76 -1 -138 -6 -138 -4 0 -18 26 -30 58 -38 103 -124
307 -134 320 -7 8 -45 12 -124 12 l-114 0 0 -50z"/>
<path d="M2770 1240 c0 -46 2 -50 25 -50 14 0 29 -8 35 -19 6 -12 10 -110 10
-250 0 -246 -3 -261 -51 -261 -18 0 -20 -6 -17 -47 l3 -48 246 -3 c189 -2 249
1 256 10 6 7 24 60 41 118 17 58 34 113 37 122 5 12 -2 21 -24 32 -16 9 -34
16 -40 16 -5 0 -22 -25 -38 -57 -15 -31 -45 -70 -66 -87 -35 -28 -47 -31 -118
-35 l-79 -3 0 101 c0 113 9 128 59 100 19 -11 27 -24 29 -52 3 -36 4 -37 43
-37 l39 0 0 149 0 149 -31 6 c-41 8 -49 1 -49 -39 0 -41 -22 -65 -61 -65 l-29
0 0 90 0 90 66 0 c90 0 128 -20 166 -87 32 -57 35 -59 73 -41 32 14 31 29 -4
148 l-29 95 -246 3 -246 2 0 -50z"/>
<path d="M3407 1283 c-4 -3 -7 -25 -7 -48 0 -39 3 -43 29 -48 18 -4 31 -14 35
-29 8 -30 8 -436 0 -465 -4 -15 -14 -23 -29 -23 -34 0 -47 -22 -39 -69 l7 -42
116 3 116 3 3 45 c3 44 2 46 -30 55 l-33 10 -3 193 c-1 105 1 192 5 192 5 0
25 -44 47 -98 78 -195 161 -387 171 -395 5 -4 33 -6 60 -5 l50 3 5 303 c5 321
5 321 53 322 15 0 18 7 15 48 l-3 47 -115 0 -115 0 -3 -47 c-3 -45 -1 -48 20
-48 43 0 48 -16 48 -157 0 -73 -3 -133 -7 -133 -5 0 -41 83 -82 183 -41 100
-79 188 -84 195 -10 13 -218 18 -230 5z"/>
<path d="M4727 1283 c-4 -3 -7 -26 -7 -50 0 -36 3 -43 19 -43 48 0 51 -16 51
-263 0 -128 -4 -237 -8 -243 -4 -7 -18 -14 -32 -15 -23 -4 -25 -8 -25 -54 l0
-50 137 -3 136 -3 7 42 c6 35 4 45 -11 56 -10 7 -26 13 -35 13 -17 0 -18 19
-21 233 -2 127 -1 242 1 255 2 15 13 25 35 30 26 7 32 14 34 41 6 56 -6 61
-148 61 -69 0 -130 -3 -133 -7z"/>
<path d="M6414 1276 c-3 -8 -4 -29 -2 -48 2 -25 8 -34 25 -36 42 -6 43 -18 41
-273 l-3 -243 -33 -8 c-32 -9 -33 -10 -30 -56 l3 -47 114 -3 c125 -3 131 -1
131 55 0 28 -5 35 -35 47 l-35 15 1 198 c0 109 3 194 5 188 3 -5 51 -120 107
-255 l102 -245 60 0 60 0 3 299 c1 201 6 304 13 313 6 7 22 13 36 13 23 0 24
3 21 48 l-3 47 -109 3 c-118 3 -136 -3 -136 -47 0 -34 10 -47 41 -54 16 -4 29
-16 33 -29 10 -38 7 -273 -3 -262 -6 5 -44 92 -86 194 -42 102 -82 188 -88
192 -7 4 -61 8 -120 8 -83 0 -109 -3 -113 -14z"/>
<path d="M7368 1284 c-5 -4 -8 -26 -8 -49 0 -39 3 -43 29 -48 18 -4 31 -14 35
-29 8 -30 8 -436 0 -465 -4 -15 -14 -23 -29 -23 -25 0 -41 -17 -39 -40 1 -8 2
-28 3 -43 l1 -28 138 3 137 3 3 46 c3 44 2 47 -27 52 -35 7 -44 37 -39 127 l3
55 85 6 c96 7 112 12 158 46 114 84 96 298 -31 365 -38 21 -58 23 -227 26
-102 2 -188 0 -192 -4z m349 -148 c56 -66 12 -160 -80 -173 -62 -8 -67 -1 -67
99 0 108 2 111 68 106 45 -4 60 -10 79 -32z"/>
<path d="M7907 1284 c-4 -4 -7 -27 -7 -51 0 -36 4 -45 23 -52 20 -8 32 -36 76
-173 29 -89 74 -226 100 -303 l46 -140 65 0 65 0 32 95 c18 52 62 189 98 303
57 179 70 210 91 219 22 10 25 17 22 57 l-3 46 -107 3 c-106 3 -108 2 -114
-22 -10 -42 -1 -70 26 -76 16 -4 26 -14 28 -27 3 -17 -52 -213 -104 -372 -3
-9 -8 -11 -13 -5 -11 11 -111 344 -111 368 0 11 12 22 30 29 29 11 31 15 28
57 l-3 45 -131 3 c-71 1 -133 -1 -137 -4z"/>
<path d="M9470 1240 c0 -43 3 -50 19 -50 48 0 51 -16 51 -263 0 -128 -4 -237
-8 -243 -4 -6 -20 -14 -35 -18 -26 -6 -28 -9 -25 -54 l3 -47 216 -3 c166 -2
219 1 226 10 12 15 73 225 73 250 0 13 -44 38 -67 38 -2 0 -14 -24 -27 -52
-38 -85 -96 -128 -172 -128 -29 0 -34 4 -34 23 -4 500 -6 486 42 487 21 0 33
39 24 75 l-6 25 -140 0 -140 0 0 -50z"/>
<path d="M10638 1284 c-5 -4 -8 -26 -8 -49 0 -38 3 -42 33 -50 l32 -10 0 -250
0 -250 -30 -5 c-29 -5 -30 -7 -30 -55 l0 -50 170 0 c200 1 262 15 326 72 183
166 150 539 -56 629 -32 15 -78 19 -235 22 -107 2 -198 0 -202 -4z m378 -144
c60 -56 87 -180 64 -291 -24 -111 -75 -161 -167 -163 l-58 -1 -3 244 -2 243
69 -4 c57 -3 75 -8 97 -28z"/>
<path d="M9243 735 c-26 -19 -47 -77 -38 -107 21 -67 87 -88 130 -42 36 39 34
96 -4 135 -33 32 -56 36 -88 14z"/>
<path d="M11683 735 c-27 -19 -46 -75 -38 -108 17 -68 95 -91 134 -41 38 48
19 144 -31 158 -34 9 -41 8 -65 -9z"/>
<path d="M3299 256 c-2 -2 -236 -9 -519 -15 -719 -15 -1363 -31 -1570 -40
l-175 -7 175 -7 c96 -3 373 -11 615 -17 242 -6 609 -15 815 -20 991 -26 1232
-31 1250 -25 17 5 20 16 20 71 l0 64 -303 0 c-167 0 -306 -2 -308 -4z"/>
<path d="M8587 245 c-12 -28 -8 -102 6 -113 12 -10 478 -4 1317 17 217 6 620
16 895 22 501 11 752 25 525 28 -58 1 -170 4 -250 6 -80 3 -329 9 -555 15
-225 6 -585 15 -800 21 -214 6 -557 13 -761 16 -343 5 -371 4 -377 -12z"/>
</g>
</svg>
