<?xml version="1.0" standalone="no"?>
<!DOCTYPE svg PUBLIC "-//W3C//DTD SVG 20010904//EN"
 "http://www.w3.org/TR/2001/REC-SVG-20010904/DTD/svg10.dtd">
<svg version="1.0" xmlns="http://www.w3.org/2000/svg"
  viewBox="0 0 1280.000000 1280.000000"
 preserveAspectRatio="xMidYMid meet">

<g transform="translate(0.000000,1280.000000) scale(0.100000,-0.100000)"
fill="#f3c77c" stroke="none"
>
<path d="M5610 11483 c-25 -14 -57 -34 -72 -44 -14 -11 -28 -19 -31 -19 -4 0
-334 -197 -345 -205 -3 -3 -3 -163 -2 -685 0 -34 2 -36 48 -49 26 -8 52 -17
57 -21 6 -3 30 -12 55 -20 25 -7 49 -17 54 -22 6 -4 20 -8 32 -8 13 0 26 -4
29 -10 3 -5 15 -10 26 -10 11 0 22 -7 26 -16 3 -8 6 -311 7 -672 l1 -657 40 3
c22 2 44 8 50 13 5 5 21 9 35 9 14 0 31 5 38 12 9 9 12 291 12 1207 0 658 -4
1201 -8 1208 -5 8 -20 4 -52 -14z"/>
<path d="M5767 11283 c-8 -8 -9 -2146 -1 -2167 4 -10 13 -12 32 -7 l27 7 3
1070 2 1069 -22 17 c-26 19 -32 21 -41 11z"/>
<path d="M5920 10185 c0 -575 2 -1045 4 -1045 3 0 16 4 30 10 l26 10 0 1019 0
1020 -30 16 -30 16 0 -1046z"/>
<path d="M6210 10814 c-30 -14 -63 -27 -72 -30 -17 -6 -18 -56 -20 -795 -2
-434 0 -789 4 -789 13 0 133 32 146 39 16 9 23 1602 7 1600 -5 0 -35 -12 -65
-25z"/>
<path d="M6380 9882 l0 -718 30 -29 c17 -16 30 -26 30 -22 0 4 0 334 0 735 0
674 -1 728 -17 740 -44 32 -43 52 -43 -706z"/>
<path d="M6537 10523 c-4 -3 -7 -340 -7 -748 l0 -741 30 -29 c17 -16 30 -26
30 -22 0 4 0 347 0 763 0 712 -1 757 -17 770 -21 15 -27 17 -36 7z"/>
<path d="M5081 9758 l0 -703 77 -38 c89 -43 118 -45 212 -14 l65 22 3 657 2
657 -22 6 c-13 3 -39 12 -58 20 -19 8 -75 28 -125 45 -49 17 -98 35 -107 40
-50 28 -48 63 -47 -692z"/>
<path d="M6690 10457 c0 -1 -1 -352 -2 -780 l-1 -777 23 -25 c13 -14 27 -25
32 -25 4 0 8 355 8 789 l0 789 -30 15 c-16 9 -30 15 -30 14z"/>
<path d="M4943 10250 l-23 -9 0 -555 c0 -518 1 -554 18 -560 9 -3 23 -9 30
-12 9 -4 12 113 12 570 0 317 -3 576 -7 575 -5 0 -18 -4 -30 -9z"/>
<path d="M4793 10190 l-23 -9 0 -496 0 -495 30 0 30 0 0 505 c0 278 -3 505 -7
504 -5 0 -18 -4 -30 -9z"/>
<path d="M4638 10123 c-16 -4 -18 -41 -20 -529 -2 -369 0 -524 8 -524 6 0 20
10 32 23 22 23 22 24 22 530 0 400 -3 507 -12 506 -7 -1 -21 -3 -30 -6z"/>
<path d="M6260 9150 c-66 -20 -129 -36 -455 -115 -192 -47 -366 -90 -385 -95
-19 -5 -44 -11 -55 -13 -16 -2 -12 -7 20 -23 22 -12 129 -66 237 -122 108 -56
203 -102 210 -102 7 0 24 10 38 23 14 12 95 80 180 151 85 71 160 134 165 140
6 7 25 22 42 34 37 26 34 28 124 -49 30 -26 110 -93 179 -150 69 -57 127 -106
130 -109 3 -4 48 -41 100 -84 91 -75 96 -78 134 -71 47 7 56 13 36 25 -9 5
-28 20 -43 34 -25 24 -29 34 -32 104 l-3 77 -43 0 c-40 0 -44 -3 -44 -24 0
-13 -5 -26 -11 -28 -9 -3 -101 68 -170 132 -6 5 -35 30 -64 55 -30 25 -95 80
-144 123 -107 93 -113 97 -146 87z m-609 -338 c-7 -2 -18 1 -23 6 -8 8 -4 9
13 5 13 -4 18 -8 10 -11z"/>
<path d="M4755 9112 c-16 -15 -69 -60 -116 -99 -72 -60 -242 -204 -349 -296
-14 -12 -50 -42 -80 -67 -30 -25 -68 -57 -85 -73 -53 -48 -60 -37 -60 93 l0
115 -128 0 -128 0 -2 -239 -2 -238 -40 -35 c-22 -19 -62 -53 -90 -75 -27 -22
-78 -65 -113 -95 -34 -31 -80 -69 -101 -87 -22 -17 -77 -63 -123 -102 l-83
-71 -410 -13 c-225 -7 -412 -14 -415 -17 -5 -5 659 5 805 12 50 2 111 4 136 5
34 0 53 6 70 23 14 12 45 38 69 57 25 19 95 77 155 128 163 138 196 167 235
198 19 16 40 34 45 40 6 6 33 28 60 49 28 22 55 44 60 50 6 6 46 39 90 75 44
35 114 93 156 130 42 36 87 74 100 85 13 11 49 40 79 65 30 25 60 50 65 56 6
6 44 38 85 71 41 33 88 72 103 87 15 14 37 26 48 26 11 0 48 -24 81 -52 105
-91 152 -132 208 -178 30 -25 75 -63 100 -86 26 -22 64 -54 86 -70 21 -16 44
-33 50 -39 44 -40 87 -76 134 -115 30 -25 64 -52 75 -62 11 -9 40 -33 65 -53
61 -51 146 -122 195 -166 22 -19 83 -71 135 -114 52 -44 97 -82 100 -85 3 -3
44 -37 91 -77 48 -39 93 -78 100 -86 8 -7 26 -21 42 -31 l27 -18 59 48 c106
89 465 392 492 416 27 24 65 55 184 154 39 32 72 61 75 64 3 3 24 20 48 38
l43 33 52 -43 c28 -24 61 -50 72 -59 11 -9 70 -59 130 -111 61 -51 124 -105
141 -118 29 -24 260 -217 314 -263 14 -12 38 -33 53 -46 20 -17 43 -24 80 -26
103 -6 992 -17 987 -12 -3 3 -214 10 -470 17 -256 6 -477 15 -492 20 -15 5
-90 62 -167 127 l-141 118 0 163 0 162 -80 0 -80 0 0 -80 c0 -113 0 -113 -201
60 -108 92 -170 144 -183 152 -10 6 -127 -15 -296 -52 -25 -6 -70 -15 -100
-21 -30 -6 -74 -15 -97 -20 -24 -5 -62 -13 -85 -18 -24 -5 -65 -14 -93 -20
-226 -49 -239 -51 -265 -37 -14 7 -83 43 -155 81 -71 37 -191 100 -265 138
-74 38 -171 89 -215 112 -44 23 -150 78 -235 122 -85 44 -207 107 -270 140
-252 132 -313 163 -324 163 -6 0 -24 -13 -41 -28z m129 -158 c3 -8 2 -12 -4
-9 -6 3 -10 10 -10 16 0 14 7 11 14 -7z m2376 -484 c0 -5 -2 -10 -4 -10 -3 0
-8 5 -11 10 -3 6 -1 10 4 10 6 0 11 -4 11 -10z m-1025 -160 c3 -5 1 -10 -4
-10 -6 0 -11 5 -11 10 0 6 2 10 4 10 3 0 8 -4 11 -10z m-475 -90 c0 -5 -2 -10
-4 -10 -3 0 -8 5 -11 10 -3 6 -1 10 4 10 6 0 11 -4 11 -10z m2165 -310 c3 -5
1 -10 -4 -10 -6 0 -11 5 -11 10 0 6 2 10 4 10 3 0 8 -4 11 -10z"/>
<path d="M6217 8673 c-4 -3 -7 -17 -7 -30 0 -19 5 -23 30 -23 27 0 30 3 30 30
0 25 -4 30 -23 30 -13 0 -27 -3 -30 -7z"/>
<path d="M6322 8671 c-23 -14 -10 -46 18 -46 20 0 25 5 25 25 0 26 -20 36 -43
21z"/>
<path d="M6214 8565 c-10 -25 4 -45 31 -45 21 0 25 5 25 30 0 25 -4 30 -25 30
-14 0 -28 -7 -31 -15z"/>
<path d="M6317 8574 c-4 -4 -7 -18 -7 -31 0 -21 4 -24 28 -21 21 2 27 8 27 28
0 18 -6 26 -20 28 -12 2 -24 0 -28 -4z"/>
<path d="M4620 8000 l0 -81 78 3 77 3 3 78 3 77 -81 0 -80 0 0 -80z"/>
<path d="M4844 8066 c-3 -7 -4 -42 -2 -77 l3 -64 75 0 75 0 3 78 3 77 -76 0
c-54 0 -77 -4 -81 -14z"/>
<path d="M7092 7853 c3 -36 5 -38 38 -38 33 0 35 2 35 35 0 33 -2 35 -38 38
l-38 3 3 -38z"/>
<path d="M7212 7853 c3 -36 5 -38 38 -38 33 0 35 2 38 38 l3 37 -41 0 -41 0 3
-37z"/>
<path d="M4625 7852 c-3 -3 -5 -38 -5 -79 l0 -73 80 0 80 0 0 75 c0 41 -3 75
-7 76 -42 4 -144 4 -148 1z"/>
<path d="M4893 7853 l-53 -4 0 -75 0 -74 80 0 81 0 -3 78 c-3 87 3 83 -105 75z"/>
<path d="M2383 7813 c9 -2 23 -2 30 0 6 3 -1 5 -18 5 -16 0 -22 -2 -12 -5z"/>
<path d="M7095 7772 c-3 -3 -5 -21 -5 -39 0 -33 1 -34 38 -31 35 3 37 5 37 37
0 31 -3 34 -32 36 -18 1 -35 0 -38 -3z"/>
<path d="M7214 7767 c-3 -8 -4 -28 -2 -44 3 -25 6 -28 33 -24 41 4 45 8 45 42
0 22 -5 29 -19 29 -11 0 -26 3 -35 6 -9 4 -18 0 -22 -9z"/>
<path d="M1500 7358 c-12 -40 -23 -79 -26 -87 -5 -17 13 -41 32 -41 7 0 23 18
34 40 23 45 62 75 85 66 13 -5 15 -32 13 -193 -3 -186 -3 -188 -25 -191 -19
-3 -23 -10 -23 -38 l0 -34 100 0 100 0 0 34 c0 28 -4 35 -22 38 -23 3 -23 5
-26 191 -2 156 0 188 12 193 23 9 64 -24 83 -67 18 -42 24 -45 53 -29 20 11
22 2 -27 173 -6 18 -43 24 -43 7 0 -6 -50 -10 -130 -10 -80 0 -130 4 -130 10
0 6 -9 10 -20 10 -15 0 -23 -14 -40 -72z"/>
<path d="M7399 7341 c-19 -63 -23 -93 -16 -100 18 -18 45 -12 52 10 11 32 65
89 86 89 19 0 19 -8 17 -192 -3 -192 -3 -193 -25 -196 -19 -3 -23 -10 -23 -38
l0 -34 104 0 104 0 0 35 c0 30 -3 35 -23 35 -13 0 -26 7 -29 16 -3 9 -6 94 -6
190 0 146 2 176 15 180 23 9 62 -22 85 -66 21 -40 33 -47 59 -31 12 8 10 23
-11 98 -21 73 -28 89 -46 91 -12 2 -22 -1 -22 -7 0 -14 -246 -15 -255 -1 -3 6
-14 10 -23 10 -13 0 -24 -22 -43 -89z"/>
<path d="M8496 7383 c-33 -105 -38 -135 -24 -144 25 -16 38 -9 58 31 23 44 62
75 85 66 13 -4 15 -34 15 -180 0 -96 -3 -181 -6 -190 -3 -9 -17 -16 -30 -16
-21 0 -24 -5 -24 -35 l0 -35 105 0 105 0 0 34 c0 28 -4 35 -22 38 -23 3 -23 4
-26 196 -2 184 -2 192 17 192 21 0 75 -57 86 -89 7 -24 24 -27 47 -8 14 11 13
20 -9 100 -21 69 -30 87 -44 87 -11 0 -19 -4 -19 -10 0 -6 -50 -10 -130 -10
-80 0 -130 4 -130 10 0 6 -9 10 -19 10 -14 0 -23 -13 -35 -47z"/>
<path d="M4182 7399 c-23 -12 -56 -38 -72 -57 -98 -118 -73 -351 46 -435 35
-24 51 -29 103 -29 44 0 71 6 96 21 34 20 35 20 45 1 7 -13 21 -20 40 -20 l30
0 0 104 c0 101 1 105 23 108 17 2 23 11 25 36 l3 32 -105 0 -106 0 0 -34 c0
-30 3 -35 28 -38 58 -7 31 -116 -32 -132 -60 -15 -117 43 -137 141 -17 84 0
164 46 210 55 55 117 39 169 -43 31 -48 34 -50 60 -31 18 13 18 17 2 78 -9 36
-16 73 -16 82 0 18 -44 25 -54 8 -3 -5 -23 -3 -43 5 -55 19 -102 17 -151 -7z"/>
<path d="M4942 7399 c-44 -22 -75 -56 -108 -119 -29 -55 -26 -210 5 -270 49
-94 105 -133 192 -133 72 1 128 29 174 89 38 51 42 63 23 82 -18 18 -31 14
-52 -16 -27 -41 -80 -72 -122 -72 -122 0 -176 267 -73 355 48 39 93 34 140
-15 22 -22 42 -52 45 -66 6 -22 10 -25 33 -19 14 4 28 8 29 10 2 2 -3 34 -12
72 -9 37 -19 78 -22 91 -4 22 -37 31 -48 13 -3 -5 -23 -3 -43 5 -55 19 -112
17 -161 -7z"/>
<path d="M5455 7411 c-71 -23 -128 -84 -155 -165 -17 -52 -9 -190 14 -237 21
-44 69 -95 109 -116 40 -20 154 -20 194 0 84 44 133 138 133 256 0 164 -95
273 -235 270 -22 -1 -49 -4 -60 -8z m120 -87 c72 -47 82 -255 15 -336 -23 -27
-34 -33 -68 -33 -76 0 -116 66 -115 190 0 119 45 195 116 195 15 0 38 -7 52
-16z"/>
<path d="M2035 7203 c-73 -230 -82 -253 -102 -253 -8 0 -13 -13 -13 -35 l0
-35 85 0 85 0 0 35 c0 29 -4 35 -20 35 -28 0 -34 22 -20 65 l12 35 68 0 68 0
12 -35 c14 -42 8 -65 -18 -65 -13 0 -18 -8 -17 -32 l0 -33 103 -3 102 -3 0 34
c0 25 -5 36 -19 40 -14 3 -32 46 -76 183 -31 99 -64 200 -72 227 l-15 47 -49
0 -48 0 -66 -207z m118 4 c25 -81 24 -87 -23 -87 -31 0 -40 4 -40 17 0 23 32
123 40 123 3 0 14 -24 23 -53z"/>
<path d="M2410 7376 c0 -28 4 -35 23 -38 22 -3 22 -4 22 -193 0 -189 0 -190
-22 -193 -19 -3 -23 -10 -23 -38 l0 -34 85 0 85 0 0 34 c0 28 -4 35 -22 38
-23 3 -23 6 -26 156 -1 83 1 152 5 152 5 0 31 -57 60 -128 111 -273 97 -247
142 -250 l41 -3 0 215 c0 118 3 221 6 230 3 9 17 16 30 16 21 0 24 5 24 35 l0
36 -87 -3 -88 -3 0 -30 c0 -23 5 -31 23 -33 21 -3 22 -7 22 -102 0 -54 3 -105
6 -114 3 -9 2 -16 -2 -16 -5 0 -24 40 -43 88 -19 48 -47 115 -62 150 l-28 62
-86 0 -85 0 0 -34z"/>
<path d="M3110 7376 c0 -28 4 -35 23 -38 22 -3 22 -4 22 -193 0 -189 0 -190
-22 -193 -19 -3 -23 -10 -23 -38 l0 -34 185 0 c140 0 187 3 189 13 2 6 11 35
19 62 9 28 19 67 22 87 6 34 5 39 -16 47 -21 7 -25 5 -33 -18 -25 -76 -88
-116 -171 -109 l-40 3 -3 78 -3 77 29 0 c34 0 52 -16 52 -47 0 -18 6 -23 25
-23 l25 0 0 110 0 110 -25 0 c-21 0 -25 -5 -25 -29 0 -34 -20 -54 -52 -49 -21
3 -23 9 -26 71 l-3 67 65 0 c58 0 67 -3 95 -30 16 -17 33 -39 36 -50 7 -22 18
-25 45 -10 15 8 17 15 10 33 -5 12 -16 48 -25 80 l-16 57 -179 0 -180 0 0 -34z"/>
<path d="M3572 7378 c2 -26 8 -34 26 -36 l22 -3 -2 -192 c-3 -191 -3 -192 -25
-195 -19 -3 -23 -10 -23 -38 l0 -34 90 0 90 0 0 35 c0 30 -3 35 -24 35 -17 0
-26 7 -30 25 -9 35 -5 285 5 285 4 0 17 -25 29 -56 11 -31 29 -75 39 -98 10
-22 35 -83 57 -133 l38 -93 43 0 43 0 0 225 0 225 25 10 c19 7 25 17 25 40 l0
30 -91 0 -90 0 3 -32 c2 -25 9 -34 28 -38 25 -6 25 -8 28 -119 1 -62 -1 -110
-5 -108 -5 3 -35 71 -67 151 l-60 146 -88 0 -89 0 3 -32z"/>
<path d="M4552 7378 c2 -26 8 -34 26 -36 l22 -3 -2 -192 c-3 -191 -3 -192 -25
-195 -19 -3 -23 -10 -23 -38 l0 -34 105 0 105 0 0 34 c0 28 -4 35 -22 38 -23
3 -23 4 -26 195 l-2 192 22 3 c18 2 24 10 26 36 l3 32 -106 0 -106 0 3 -32z"/>
<path d="M5810 7376 c0 -28 4 -35 23 -38 22 -3 22 -4 22 -193 0 -189 0 -190
-22 -193 -19 -3 -23 -10 -23 -38 l0 -34 85 0 85 0 0 34 c0 28 -4 35 -22 38
-23 3 -23 5 -25 163 -2 107 1 155 7 144 5 -9 34 -77 64 -150 99 -246 90 -229
135 -229 l41 0 2 227 3 227 25 6 c20 5 25 12 25 35 l0 30 -88 3 -88 3 3 -33
c2 -25 8 -34 26 -36 21 -3 22 -6 21 -120 0 -134 7 -140 -80 66 l-51 122 -84 0
-84 0 0 -34z"/>
<path d="M6510 7376 c0 -28 4 -35 23 -38 22 -3 22 -4 22 -193 0 -189 0 -190
-22 -193 -19 -3 -23 -10 -23 -38 l0 -34 100 0 100 0 0 34 c0 28 -4 35 -22 38
-21 3 -23 9 -26 71 l-3 67 48 1 c76 1 122 20 157 62 27 34 31 46 31 100 0 49
-5 69 -23 95 -40 55 -65 62 -222 62 l-140 0 0 -34z m257 -68 c28 -26 31 -77 6
-107 -12 -14 -35 -23 -65 -27 l-48 -7 0 82 0 81 42 0 c29 0 49 -7 65 -22z"/>
<path d="M6910 7375 c0 -24 5 -35 15 -35 10 0 36 -67 88 -227 l73 -228 49 0
48 0 59 185 c79 248 87 270 104 270 9 0 14 11 14 35 l0 35 -80 0 -80 0 0 -31
c0 -22 5 -32 20 -36 11 -3 20 -13 20 -23 0 -19 -39 -157 -69 -248 l-19 -55
-30 99 c-66 216 -67 224 -31 224 15 0 19 7 19 35 l0 35 -100 0 -100 0 0 -35z"/>
<path d="M8070 7376 c0 -28 4 -35 23 -38 22 -3 22 -4 22 -193 0 -189 0 -190
-22 -193 -19 -3 -23 -10 -23 -38 l0 -34 165 0 164 0 11 43 c6 23 18 66 27 95
8 30 13 55 11 56 -32 27 -42 23 -64 -24 -27 -58 -62 -83 -117 -84 l-42 -1 -3
165 c-3 189 -1 207 31 212 17 2 23 11 25 36 l3 32 -105 0 -106 0 0 -34z"/>
<path d="M8932 7378 c2 -25 8 -34 24 -36 28 -4 30 -10 33 -187 3 -162 -5 -205
-39 -205 -16 0 -20 -7 -20 -36 l0 -36 138 4 c159 5 206 20 252 78 43 54 60
111 60 199 0 60 -5 87 -25 130 -49 105 -86 121 -280 121 l-146 0 3 -32z m277
-64 c83 -58 80 -275 -4 -330 -15 -10 -45 -18 -68 -18 l-42 -1 -3 183 -2 182
48 0 c28 0 57 -7 71 -16z"/>
<path d="M7890 6995 c-16 -20 -17 -80 -1 -99 17 -20 55 -21 75 0 9 8 16 31 16
49 0 18 -7 41 -16 49 -19 20 -58 21 -74 1z"/>
<path d="M9696 6988 c-44 -63 26 -145 78 -92 9 8 16 31 16 49 0 61 -62 89 -94
43z"/>
<path d="M3709 6646 c-2 -2 -292 -9 -644 -16 -1111 -21 -1130 -23 -450 -38
325 -7 721 -17 880 -23 160 -5 325 -9 368 -9 l77 0 0 45 0 45 -113 0 c-63 0
-116 -2 -118 -4z"/>
<path d="M7420 6605 l0 -48 208 6 c114 4 535 14 937 23 401 8 732 17 734 20 2
2 -72 4 -165 5 -93 0 -198 2 -234 5 -36 2 -294 8 -575 14 -280 6 -599 13 -707
17 l-198 6 0 -48z"/>
</g>
</svg>
