<?xml version="1.0" encoding="utf-8"?>
<!-- Generator: Adobe Illustrator 27.5.0, SVG Export Plug-In . SVG Version: 6.00 Build 0)  -->
<svg version="1.1" xmlns="http://www.w3.org/2000/svg" xmlns:xlink="http://www.w3.org/1999/xlink" x="0px" y="0px"
	 viewBox="0 0 500 500" style="enable-background:new 0 0 500 500;" xml:space="preserve">
<g id="BACKGROUND">
	<rect style="fill:#FFFFFF;" width="500" height="500"/>
</g>
<g id="OBJECTS">
	<g>
		<path style="fill:#D9E5F9;" d="M417.619,395.673c5.698-10.251,11.358-20.745,15.903-32.07
			c7.973-19.861,14.404-42.137,16.036-67.953c0.238-3.757,0.205-7.558,0.657-11.434c0.242,26.195-3.717,49.012-9.463,69.397
			c-5.036,17.859-12.1,34.171-20.504,48.501c-1.179,2.009-2.55,3.941-3.551,6.045c20.034-26.601,35.705-58.708,41.535-99.761
			c1.945-13.696,2.604-29.122,1.445-44.688c-1.601-21.508-6.386-41.034-12.75-57.834c-2.152-5.688-4.684-11.048-7.36-16.296
			c-10.221-20.064-22.438-38.435-37.064-54.285c-0.72-0.778-0.997-1.209-1.577-1.183c-0.425,0.021-1.678,0.752-2.628,1.183
			c-2.858,1.294-5.662,2.544-8.15,3.681c-25.275,11.541-50.367,23.341-74.525,35.488c-7.028,3.534-14.157,6.756-21.03,10.384
			c-6.892,3.639-13.831,7.216-20.766,10.645c-3.461,1.711-6.819,3.664-10.253,5.39c-10.509,5.283-20.622,11.032-31.281,16.034
			c50.098-28.544,100.686-56.721,150.758-85.171c3.347-1.899,6.681-3.904,10.121-5.651c-1.108-1.563-2.66-2.688-4.075-3.941
			c-1.423-1.263-2.739-2.75-4.469-3.682c-15.065,7.28-30.506,13.92-45.74,20.898c-15.235,6.979-30.083,14.62-44.951,21.819
			c-0.247,0.099,0.587-0.405,0.788-0.526c6.714-4.005,13.38-8.235,20.111-12.356c6.73-4.119,13.415-8.31,20.109-12.486
			c11.747-7.322,23.636-14.439,35.226-21.685c1.617-1.012,3.48-1.903,4.731-3.418c-19.739-14.345-43.018-26.19-72.159-31.282
			c-7.421-1.298-15.159-2.19-23.132-2.761c-25.472-1.825-50.085,1.254-70.319,6.31c-27.353,6.833-50.83,18.167-70.976,32.464
			c-10.21,7.247-19.353,15.144-27.997,23.791c-8.092,8.092-15.073,17.47-21.423,27.076c-0.408,0.615-0.934,1.473-1.84,1.445
			c-0.106-1.001,0.725-1.765,1.183-2.496c7.776-12.44,16.804-23.77,26.813-33.781c10.77-10.77,22.942-20.141,35.882-28.652
			c25.976-17.082,56.775-29.788,94.11-35.094c-24.901,0.358-46.509,5.124-65.852,11.699c-19.195,6.524-36.242,15.473-51.522,26.024
			c-30.366,20.965-54.625,49.535-70.976,84.252c-8.188,17.384-14.61,37.23-17.875,59.672c-2.448,16.82-2.799,36.958-0.789,54.415
			c3.334,28.952,11.756,52.735,22.869,74.13c6.792,13.073,14.769,25.049,23.738,35.89h1.817c-2.417-3.468-4.795-6.989-7.021-10.653
			c-11.754-19.337-20.554-41.542-25.893-67.166c-0.484-2.315-1.034-4.682-1.184-7.097c5.956,25.602,15.344,48.513,27.209,68.743
			c3.268,5.573,6.713,10.967,10.352,16.173h316.285C410.293,408.05,414.102,402.001,417.619,395.673z"/>
		<g>
			<g>
				<path style="fill-rule:evenodd;clip-rule:evenodd;fill:#C16C06;" d="M165.319,388.758c-29.852,0.499-60.215,0.189-89.96-0.131
					c1.867-6.432,5.294-12.878,9.875-18.25c5.087-5.966,11.107-11.013,21.008-12.605c5.104-0.821,9.916,1.226,12.569,3.152
					c4.852,3.519,6.494,8.854,12.57,11.817c2.796,1.363,6.35,2.079,10.773,2.627c3.955,0.489,8.727,0.537,11.852,1.707
					c4.706,1.762,7.092,6.06,9.876,9.454C164.484,387.261,165.154,388.016,165.319,388.758z"/>
				<g>
					<g>
						<path style="fill-rule:evenodd;clip-rule:evenodd;fill:#C9C9C9;" d="M448.785,401.6c0,6.829-5.535,12.362-12.364,12.362
							H68.911c-6.827,0-12.363-5.534-12.363-12.362v-1.359c0-6.828,5.536-12.362,12.363-12.362h367.51
							c6.829,0,12.364,5.535,12.364,12.362V401.6z"/>
						<path style="fill-rule:evenodd;clip-rule:evenodd;fill:#C9C9C9;" d="M431.356,423.608c0,6.828-5.535,12.363-12.363,12.363
							H83.227c-6.827,0-12.364-5.535-12.364-12.363v-1.358c0-6.827,5.537-12.362,12.364-12.362h335.766
							c6.829,0,12.363,5.535,12.363,12.362V423.608z"/>
						<path style="fill-rule:evenodd;clip-rule:evenodd;fill:#C9C9C9;" d="M389.554,451.596c0,4.97-4.029,9-9,9H167.168
							c-4.969,0-9-4.03-9-9v-0.988c0-4.971,4.03-8.999,9-8.999h213.386c4.971,0,9,4.028,9,8.999V451.596z"/>
					</g>
					<g>
						<g>
							<g>
								<path style="fill-rule:evenodd;clip-rule:evenodd;fill:#898989;" d="M317.009,418.036c0,2.324-1.883,4.208-4.207,4.208
									H171.887c-2.324,0-4.208-1.884-4.208-4.208v-0.462c0-2.322,1.885-4.208,4.208-4.208h140.915
									c2.324,0,4.207,1.886,4.207,4.208V418.036z"/>
								<path style="fill-rule:evenodd;clip-rule:evenodd;fill:#898989;" d="M379.411,410.738c0,1.943-1.575,3.519-3.519,3.519
									h-34.563c-1.943,0-3.52-1.575-3.52-3.519v-0.387c0-1.941,1.576-3.518,3.52-3.518h34.563c1.944,0,3.519,1.577,3.519,3.518
									V410.738z"/>
								<path style="fill-rule:evenodd;clip-rule:evenodd;fill:#B2B2B2;" d="M320.933,438.904c0,3.618-2.932,6.551-6.551,6.551
									h-64.343c-3.617,0-6.551-2.933-6.551-6.551v-0.721c0-3.617,2.934-6.55,6.551-6.55h64.343c3.619,0,6.551,2.934,6.551,6.55
									V438.904z"/>
								<path style="fill-rule:evenodd;clip-rule:evenodd;fill:#898989;" d="M159.759,418.036c0,2.324-1.883,4.208-4.208,4.208
									h-41.329c-2.323,0-4.208-1.884-4.208-4.208v-0.462c0-2.324,1.885-4.208,4.208-4.208h41.329c2.325,0,4.208,1.884,4.208,4.208
									V418.036z"/>
							</g>
							<g>
								<path style="fill-rule:evenodd;clip-rule:evenodd;fill:#B2B2B2;" d="M239.91,401.468c0,1.944-1.576,3.519-3.52,3.519
									h-34.562c-1.944,0-3.52-1.575-3.52-3.519v-0.387c0-1.943,1.576-3.518,3.52-3.518h34.562c1.944,0,3.52,1.575,3.52,3.518
									V401.468z"/>
								<path style="fill-rule:evenodd;clip-rule:evenodd;fill:#B2B2B2;" d="M324.588,401.468c0,1.944-1.576,3.519-3.519,3.519
									h-71.774c-1.944,0-3.519-1.575-3.519-3.519v-0.387c0-1.943,1.575-3.518,3.519-3.518h71.774c1.943,0,3.519,1.575,3.519,3.518
									V401.468z"/>
							</g>
						</g>
						<g>
							<path style="fill-rule:evenodd;clip-rule:evenodd;fill:#FFFFFF;" d="M298.859,408.43c0,1.954-1.584,3.54-3.539,3.54
								c-1.955,0-3.539-1.586-3.539-3.54c0-1.954,1.584-3.538,3.539-3.538C297.275,404.892,298.859,406.476,298.859,408.43z"/>
							<path style="fill-rule:evenodd;clip-rule:evenodd;fill:#FFFFFF;" d="M152.889,426.467c0,1.954-1.584,3.54-3.539,3.54
								c-1.955,0-3.539-1.586-3.539-3.54c0-1.954,1.584-3.538,3.539-3.538C151.305,422.93,152.889,424.514,152.889,426.467z"/>
							<path style="fill-rule:evenodd;clip-rule:evenodd;fill:#FFFFFF;" d="M392.186,405.594c0,1.955-1.584,3.539-3.539,3.539
								c-1.955,0-3.539-1.584-3.539-3.539c0-1.955,1.584-3.539,3.539-3.539C390.602,402.056,392.186,403.64,392.186,405.594z"/>
							<path style="fill-rule:evenodd;clip-rule:evenodd;fill:#FFFFFF;" d="M198.915,410.25c0,1.955-1.584,3.539-3.539,3.539
								c-1.955,0-3.539-1.584-3.539-3.539c0-1.955,1.584-3.538,3.539-3.538C197.331,406.712,198.915,408.295,198.915,410.25z"/>
							<path style="fill-rule:evenodd;clip-rule:evenodd;fill:#FFFFFF;" d="M364.348,405.594c0,1.168-0.946,2.115-2.114,2.115
								c-1.169,0-2.115-0.947-2.115-2.115c0-1.167,0.946-2.114,2.115-2.114C363.402,403.48,364.348,404.427,364.348,405.594z"/>
							<path style="fill-rule:evenodd;clip-rule:evenodd;fill:#FFFFFF;" d="M145.811,401.942c0,1.168-0.946,2.115-2.115,2.115
								c-1.168,0-2.115-0.947-2.115-2.115c0-1.168,0.947-2.114,2.115-2.114C144.865,399.828,145.811,400.774,145.811,401.942z"/>
							<path style="fill-rule:evenodd;clip-rule:evenodd;fill:#FFFFFF;" d="M278.082,410.545c0,1.168-0.946,2.115-2.114,2.115
								c-1.168,0-2.115-0.946-2.115-2.115c0-1.168,0.946-2.115,2.115-2.115C277.136,408.43,278.082,409.376,278.082,410.545z"/>
							<path style="fill-rule:evenodd;clip-rule:evenodd;fill:#FFFFFF;" d="M251.199,396.979c0,1.168-0.946,2.114-2.115,2.114
								c-1.168,0-2.115-0.946-2.115-2.114c0-1.168,0.947-2.115,2.115-2.115C250.253,394.865,251.199,395.811,251.199,396.979z"/>
							<path style="fill-rule:evenodd;clip-rule:evenodd;fill:#FFFFFF;" d="M162.398,418.744c0,1.17-0.947,2.117-2.115,2.117
								c-1.168,0-2.114-0.947-2.114-2.117c0-1.167,0.946-2.113,2.114-2.113C161.452,416.63,162.398,417.577,162.398,418.744z"/>
							<path style="fill-rule:evenodd;clip-rule:evenodd;fill:#FFFFFF;" d="M398.724,399.095c0,1.169-0.947,2.115-2.115,2.115
								c-1.168,0-2.115-0.946-2.115-2.115c0-1.168,0.947-2.115,2.115-2.115C397.777,396.979,398.724,397.927,398.724,399.095z"/>
							<path style="fill-rule:evenodd;clip-rule:evenodd;fill:#FFFFFF;" d="M324.017,422.228c0,1.168-0.947,2.115-2.115,2.115
								c-1.168,0-2.115-0.947-2.115-2.115c0-1.168,0.947-2.114,2.115-2.114C323.07,420.113,324.017,421.06,324.017,422.228z"/>
							<path style="fill-rule:evenodd;clip-rule:evenodd;fill:#FFFFFF;" d="M287.864,418.746c0,0.771-0.625,1.395-1.396,1.395
								c-0.772,0-1.397-0.624-1.397-1.395c0-0.772,0.625-1.397,1.397-1.397C287.239,417.349,287.864,417.974,287.864,418.746z"/>
							<path style="fill-rule:evenodd;clip-rule:evenodd;fill:#FFFFFF;" d="M381.216,426.467c0,0.771-0.625,1.397-1.396,1.397
								c-0.772,0-1.397-0.626-1.397-1.397s0.625-1.396,1.397-1.396C380.59,425.071,381.216,425.697,381.216,426.467z"/>
							<path style="fill-rule:evenodd;clip-rule:evenodd;fill:#FFFFFF;" d="M217.572,400.92c0,0.771-0.624,1.396-1.396,1.396
								c-0.771,0-1.396-0.625-1.396-1.396s0.624-1.396,1.396-1.396C216.948,399.525,217.572,400.149,217.572,400.92z"/>
							<path style="fill-rule:evenodd;clip-rule:evenodd;fill:#FFFFFF;" d="M170.359,427.864c0,0.771-0.626,1.396-1.396,1.396
								c-0.771,0-1.396-0.625-1.396-1.396s0.624-1.397,1.396-1.397C169.733,426.467,170.359,427.093,170.359,427.864z"/>
							<path style="fill-rule:evenodd;clip-rule:evenodd;fill:#FFFFFF;" d="M156.096,396.979c0,0.772-0.624,1.396-1.395,1.396
								c-0.771,0-1.396-0.624-1.396-1.396c0-0.771,0.625-1.395,1.396-1.395C155.471,395.584,156.096,396.209,156.096,396.979z"/>
						</g>
					</g>
				</g>
				<g>
					<g>
						<path style="fill-rule:evenodd;clip-rule:evenodd;fill:#FFFFFF;" d="M337.121,388.447c7.707-0.371,15.449-0.787,23.156-0.844
							v-164.42h-14.585v-22.431h-23.157v187.54h14.585V388.447z"/>
						<polygon style="fill-rule:evenodd;clip-rule:evenodd;fill:#FFFFFF;" points="401.588,360.875 401.588,279.52 387.208,274.748 
							387.208,388.292 399.009,388.292 401.588,388.292 420.014,388.292 420.014,360.875 						"/>
						<polygon style="fill-rule:evenodd;clip-rule:evenodd;fill:#FFFFFF;" points="250.011,147.605 240.061,147.605 
							240.061,228.882 231.123,228.882 231.123,370.947 241.073,370.947 241.073,289.668 250.011,289.668 						"/>
						<polygon style="fill-rule:evenodd;clip-rule:evenodd;fill:#C9C9C9;" points="310.358,190.568 310.358,96.914 249.373,108.435 
							249.373,235.821 244.833,235.821 244.833,388.292 249.373,388.292 273.345,388.292 284.962,388.292 310.358,388.292 
							316.645,388.292 316.645,190.568 						"/>
						<polygon style="fill-rule:evenodd;clip-rule:evenodd;fill:#C9C9C9;" points="227.354,134.834 227.354,128.021 
							178.308,128.021 178.308,134.834 165.526,134.834 165.526,388.292 240.136,388.292 240.136,134.834 						"/>
						<rect x="341.544" y="234.164" style="fill-rule:evenodd;clip-rule:evenodd;fill:#C9C9C9;" width="45.664" height="154.128"/>
						<g>
							<rect x="257.06" y="113.159" style="fill-rule:evenodd;clip-rule:evenodd;fill:#B2B2B2;" width="2.802" height="208.194"/>
							<rect x="267.502" y="113.159" style="fill-rule:evenodd;clip-rule:evenodd;fill:#B2B2B2;" width="2.805" height="208.194"/>
							<rect x="277.947" y="113.159" style="fill-rule:evenodd;clip-rule:evenodd;fill:#B2B2B2;" width="2.805" height="208.194"/>
							<rect x="288.391" y="113.159" style="fill-rule:evenodd;clip-rule:evenodd;fill:#B2B2B2;" width="2.804" height="208.194"/>
							<rect x="298.836" y="113.159" style="fill-rule:evenodd;clip-rule:evenodd;fill:#B2B2B2;" width="2.803" height="208.194"/>
						</g>
						<rect x="328.247" y="342.203" style="fill-rule:evenodd;clip-rule:evenodd;fill:#898989;" width="47.355" height="46.089"/>
						<polygon style="fill-rule:evenodd;clip-rule:evenodd;fill:#898989;" points="288.259,388.292 227.692,388.292 227.692,223.76 
							288.259,239.762 						"/>
					</g>
					<g>
						<polygon style="fill:#C84513;" points="333.114,381.883 333.114,387.895 242.096,387.895 242.096,381.883 277.396,381.883 
							296.965,381.883 						"/>
						<polygon style="fill:#ED8E26;" points="333.114,353.556 333.114,381.883 296.965,381.883 296.965,349.811 277.396,349.811 
							277.396,381.883 242.096,381.883 242.096,353.556 242.096,348.224 242.096,339.796 333.114,339.796 333.114,348.224 						"/>
						<polygon style="fill:#C84513;" points="242.096,338.302 242.096,335.664 287.596,335.664 333.114,335.664 333.114,338.302 
							333.114,339.796 242.096,339.796 						"/>
						<path style="fill:#D87819;" d="M333.114,321.537v14.127h-45.518v-44.099h45.518v0.205v16.746V321.537z M320.507,323.103
							v-20.325h-18.735v20.325H320.507z"/>
						<path style="fill:#ED8E26;" d="M333.114,278.729v12.836h-45.518v-41.7h45.518v12.117V278.729z M320.507,279.799v-20.306
							h-18.735v20.306H320.507z"/>
						<path style="fill:#ED8E26;" d="M242.096,291.77v-0.205h45.5v44.099h-45.5v-14.127v-13.02V291.77z M274.564,323.103v-20.325
							h-18.735v20.325H274.564z"/>
						<path style="fill:#D87819;" d="M242.096,278.729v-16.747v-12.117h45.5v41.7h-45.5V278.729z M274.564,279.799v-20.306h-18.735
							v20.306H274.564z"/>
					</g>
					<g>
						<polygon style="fill:#898989;" points="124.518,88.379 123.541,87.132 188.815,36.009 299.17,72.399 298.674,73.902 
							189.125,37.779 						"/>
						<g>
							<g>
								<g>
									<g>
										<g>
											<path style="fill:#898989;" d="M346.417,91.835H126.562c-0.453,0-0.856-0.289-1.001-0.718
												c-0.144-0.43,0.002-0.904,0.363-1.178l18.479-14.035c0.184-0.14,0.408-0.214,0.639-0.214h21.734
												c0.195,0,0.386,0.054,0.552,0.156l22.624,13.878h16.652l22.802-13.882c0.166-0.1,0.355-0.153,0.549-0.153h91.954
												c0.184,0,0.365,0.048,0.525,0.14l24.507,14.034c0.415,0.238,0.618,0.725,0.496,1.188
												C347.315,91.515,346.896,91.835,346.417,91.835z M210.667,89.724h131.782L321.63,77.801h-91.378L210.667,89.724z
												 M129.699,89.724h56.215l-19.436-11.923h-21.082L129.699,89.724z"/>
											<g>
												<path style="fill:#898989;" d="M229.956,91.835c-0.178,0-0.357-0.044-0.517-0.135c-0.333-0.186-0.539-0.538-0.539-0.921
													V76.746c0-0.583,0.473-1.056,1.056-1.056c0.583,0,1.056,0.473,1.056,1.056v12.153l21.382-13.055
													c0.326-0.198,0.734-0.206,1.067-0.019c0.333,0.187,0.539,0.539,0.539,0.921V90.78c0,0.583-0.473,1.056-1.056,1.056
													s-1.055-0.472-1.055-1.056V78.628l-21.384,13.053C230.337,91.784,230.147,91.835,229.956,91.835z"/>
												<path style="fill:#898989;" d="M275.934,91.835c-0.178,0-0.356-0.044-0.517-0.135c-0.333-0.186-0.539-0.538-0.539-0.921
													V76.746c0-0.583,0.472-1.056,1.056-1.056c0.583,0,1.056,0.473,1.056,1.056v12.153l21.382-13.055
													c0.326-0.198,0.734-0.206,1.067-0.019c0.334,0.187,0.539,0.539,0.539,0.921V90.78c0,0.583-0.473,1.056-1.055,1.056
													c-0.583,0-1.056-0.472-1.056-1.056V78.628l-21.383,13.053C276.315,91.784,276.124,91.835,275.934,91.835z"/>
												<path style="fill:#898989;" d="M252.945,91.835c-0.177,0-0.356-0.044-0.517-0.135c-0.333-0.186-0.539-0.538-0.539-0.921
													V76.746c0-0.583,0.472-1.056,1.055-1.056s1.056,0.473,1.056,1.056v12.153l21.382-13.055
													c0.326-0.198,0.734-0.206,1.066-0.019c0.334,0.187,0.54,0.539,0.54,0.921V90.78c0,0.583-0.472,1.056-1.056,1.056
													c-0.584,0-1.056-0.472-1.056-1.056V78.628l-21.382,13.053C253.326,91.784,253.135,91.835,252.945,91.835z"/>
												<path style="fill:#898989;" d="M298.922,91.835c-0.178,0-0.357-0.044-0.517-0.135c-0.333-0.186-0.539-0.538-0.539-0.921
													V76.746c0-0.583,0.473-1.056,1.056-1.056c0.582,0,1.055,0.473,1.055,1.056v12.153l21.384-13.055
													c0.325-0.198,0.733-0.206,1.066-0.019c0.333,0.187,0.54,0.539,0.54,0.921V90.78c0,0.583-0.473,1.056-1.057,1.056
													c-0.583,0-1.056-0.472-1.056-1.056V78.628l-21.382,13.053C299.304,91.784,299.113,91.835,298.922,91.835z"/>
											</g>
											<path style="fill:#898989;" d="M166.755,91.835c-0.199,0-0.398-0.056-0.571-0.168l-20.218-12.988V90.78
												c0,0.583-0.473,1.056-1.057,1.056c-0.582,0-1.056-0.472-1.056-1.056V76.746c0-0.387,0.211-0.743,0.55-0.927
												c0.338-0.186,0.751-0.171,1.077,0.038l20.217,12.989V76.746c0-0.583,0.474-1.056,1.057-1.056
												c0.582,0,1.055,0.473,1.055,1.056V90.78c0,0.386-0.21,0.742-0.549,0.928C167.102,91.792,166.928,91.835,166.755,91.835z"
												/>
										</g>
										<g>
											<g>
												<g>
													<path style="fill:#898989;" d="M206.902,236.129h-17.247c-0.38,0-0.73-0.204-0.918-0.534
														c-0.188-0.33-0.184-0.737,0.011-1.063l16.29-27.205h-15.384c-0.583,0-1.056-0.474-1.056-1.057
														c0-0.583,0.473-1.055,1.056-1.055h17.247c0.38,0,0.73,0.204,0.918,0.535c0.188,0.33,0.182,0.736-0.013,1.063
														l-16.289,27.205h15.384c0.583,0,1.055,0.474,1.055,1.057S207.485,236.129,206.902,236.129z"/>
													<path style="fill:#898989;" d="M206.902,178.522h-17.247c-0.38,0-0.73-0.205-0.918-0.535
														c-0.188-0.331-0.184-0.738,0.011-1.064l16.29-27.206h-15.384c-0.583,0-1.056-0.472-1.056-1.055
														c0-0.584,0.473-1.056,1.056-1.056h17.247c0.38,0,0.73,0.205,0.918,0.536c0.188,0.33,0.182,0.736-0.013,1.063
														l-16.289,27.205h15.384c0.583,0,1.055,0.473,1.055,1.056C207.957,178.049,207.485,178.522,206.902,178.522z"/>
													<path style="fill:#898989;" d="M206.902,207.326h-17.247c-0.38,0-0.73-0.205-0.918-0.536
														c-0.188-0.332-0.184-0.737,0.011-1.063l16.29-27.205h-15.384c-0.583,0-1.056-0.473-1.056-1.056
														c0-0.584,0.473-1.056,1.056-1.056h17.247c0.38,0,0.73,0.204,0.918,0.536c0.188,0.33,0.182,0.737-0.013,1.063
														l-16.289,27.206h15.384c0.583,0,1.055,0.472,1.055,1.055C207.957,206.852,207.485,207.326,206.902,207.326z"/>
													<path style="fill:#898989;" d="M206.902,149.717h-17.247c-0.38,0-0.73-0.205-0.918-0.535
														c-0.188-0.331-0.184-0.737,0.011-1.063l16.29-27.206h-15.384c-0.583,0-1.056-0.472-1.056-1.056
														c0-0.583,0.473-1.056,1.056-1.056h17.247c0.38,0,0.73,0.205,0.918,0.535c0.188,0.331,0.182,0.738-0.013,1.063
														l-16.289,27.206h15.384c0.583,0,1.055,0.473,1.055,1.056C207.957,149.245,207.485,149.717,206.902,149.717z"/>
												</g>
												<g>
													<path style="fill:#898989;" d="M206.902,351.346h-17.247c-0.38,0-0.73-0.204-0.918-0.535
														c-0.188-0.332-0.184-0.738,0.011-1.064l16.29-27.206h-15.384c-0.583,0-1.056-0.472-1.056-1.055
														s0.473-1.057,1.056-1.057h17.247c0.38,0,0.73,0.204,0.918,0.536c0.188,0.33,0.182,0.736-0.013,1.064l-16.289,27.206
														h15.384c0.583,0,1.055,0.473,1.055,1.056S207.485,351.346,206.902,351.346z"/>
													<path style="fill:#898989;" d="M206.902,293.738h-17.247c-0.38,0-0.73-0.204-0.918-0.536
														c-0.188-0.33-0.184-0.737,0.011-1.064l16.29-27.205h-15.384c-0.583,0-1.056-0.472-1.056-1.057
														c0-0.583,0.473-1.055,1.056-1.055h17.247c0.38,0,0.73,0.205,0.918,0.535c0.188,0.331,0.182,0.738-0.013,1.063
														l-16.289,27.207h15.384c0.583,0,1.055,0.472,1.055,1.056C207.957,293.265,207.485,293.738,206.902,293.738z"/>
													<path style="fill:#898989;" d="M206.902,322.542h-17.247c-0.38,0-0.73-0.205-0.918-0.535
														c-0.188-0.332-0.184-0.737,0.011-1.064l16.29-27.205h-15.384c-0.583,0-1.056-0.474-1.056-1.056
														c0-0.583,0.473-1.056,1.056-1.056h17.247c0.38,0,0.73,0.205,0.918,0.534c0.188,0.332,0.182,0.738-0.013,1.064
														l-16.289,27.205h15.384c0.583,0,1.055,0.474,1.055,1.057S207.485,322.542,206.902,322.542z"/>
													<path style="fill:#898989;" d="M206.902,264.934h-17.247c-0.38,0-0.73-0.204-0.918-0.536
														c-0.188-0.33-0.184-0.736,0.011-1.063l16.29-27.206h-15.384c-0.583,0-1.056-0.472-1.056-1.055s0.473-1.057,1.056-1.057
														h17.247c0.38,0,0.73,0.205,0.918,0.536c0.188,0.332,0.182,0.737-0.013,1.064l-16.289,27.205h15.384
														c0.583,0,1.055,0.472,1.055,1.055C207.957,264.461,207.485,264.934,206.902,264.934z"/>
												</g>
												<g>
													<path style="fill:#898989;" d="M206.902,380.15h-17.247c-0.38,0-0.73-0.205-0.918-0.536
														c-0.188-0.331-0.184-0.737,0.011-1.063l16.29-27.205h-15.384c-0.583,0-1.056-0.473-1.056-1.056
														s0.473-1.056,1.056-1.056h17.247c0.38,0,0.73,0.204,0.918,0.536c0.188,0.33,0.182,0.736-0.013,1.061l-16.289,27.206
														h15.384c0.583,0,1.055,0.473,1.055,1.056C207.957,379.677,207.485,380.15,206.902,380.15z"/>
												</g>
											</g>
											<path style="fill:#898989;" d="M206.902,380.133h-17.247c-0.583,0-1.056-0.473-1.056-1.056V90.78
												c0-0.582,0.473-1.056,1.056-1.056h17.247c0.583,0,1.055,0.474,1.055,1.056v288.297
												C207.957,379.66,207.485,380.133,206.902,380.133z M190.71,378.021h15.136V91.835H190.71V378.021z"/>
										</g>
										<g>
											<path style="fill:#898989;" d="M206.902,91.835h-17.247c-0.583,0-1.056-0.472-1.056-1.056v-54.38
												c0-0.521,0.38-0.964,0.896-1.044c0.514-0.078,1.011,0.228,1.167,0.726l17.247,54.379
												c0.103,0.321,0.044,0.672-0.154,0.943C207.555,91.675,207.239,91.835,206.902,91.835z M190.71,89.724h14.749
												L190.71,43.222V89.724z"/>
											<path style="fill:#898989;" d="M206.902,91.835c-0.304,0-0.607-0.13-0.816-0.384l-17.247-20.939
												c-0.259-0.316-0.314-0.752-0.139-1.123c0.174-0.369,0.546-0.604,0.955-0.604h10.606c0.583,0,1.056,0.473,1.056,1.056
												c0,0.583-0.472,1.055-1.056,1.055h-8.368l15.824,19.212c0.37,0.45,0.305,1.116-0.145,1.487
												C207.376,91.757,207.138,91.835,206.902,91.835z"/>
										</g>
									</g>
									<g>
										<path style="fill:#C16C06;" d="M130.259,89.944c0,2.454-1.99,4.444-4.444,4.444c-2.455,0-4.443-1.99-4.443-4.444
											c0-2.455,1.989-4.444,4.443-4.444C128.269,85.5,130.259,87.49,130.259,89.944z"/>
										<path style="fill:#C16C06;" d="M303.256,75.954c0,2.454-1.989,4.443-4.443,4.443c-2.455,0-4.445-1.989-4.445-4.443
											c0-2.455,1.99-4.445,4.445-4.445C301.267,71.508,303.256,73.499,303.256,75.954z"/>
										<path style="fill:#C16C06;" d="M193.394,37.235c0,2.455-1.989,4.444-4.443,4.444s-4.444-1.989-4.444-4.444
											c0-2.453,1.99-4.443,4.444-4.443S193.394,34.782,193.394,37.235z"/>
									</g>
								</g>
								<g>
									<g>
										<path style="fill:#B7CAE5;" d="M222.654,114.224c0,1.534-1.2,2.776-2.68,2.776c-1.48,0-2.679-1.242-2.679-2.776
											c0-1.533,1.199-2.774,2.679-2.774C221.455,111.449,222.654,112.691,222.654,114.224z"/>
									</g>
									<g>
										<g>
											<path style="fill:#755027;" d="M177.576,117.601l2.009-15.639l1.388-15.746c0.285-3.236,2.866-5.676,6.003-5.676h22.714
												c2.318,0,4.419,1.513,5.227,3.764l3.887,10.845c1.067,2.975,1.608,6.091,1.608,9.265v12.555
												c0,0.346-0.268,0.628-0.602,0.634l-41.616,0.716c-0.003,0-0.006,0-0.009,0c-0.175,0-0.342-0.077-0.458-0.212
												C177.607,117.97,177.552,117.785,177.576,117.601z"/>
											<g>
												<g>
													<g>
														<path style="fill:#D9E5F9;" d="M211.47,85.852l4.37,12.934c0.073,0.216,0.042,0.448-0.086,0.635
															c-0.127,0.187-0.328,0.293-0.549,0.293h-17.951V84.102h11.837C210.16,84.102,211.116,84.806,211.47,85.852z"/>
														<g>
															<defs>
																<path id="SVGID_1_" d="M211.47,85.852l4.37,12.934c0.073,0.216,0.042,0.448-0.086,0.635
																	c-0.127,0.187-0.328,0.293-0.549,0.293h-17.951V84.102h11.837C210.16,84.102,211.116,84.806,211.47,85.852z"/>
															</defs>
															<clipPath id="SVGID_00000115472488216018270700000013009487034893814186_">
																<use xlink:href="#SVGID_1_"  style="overflow:visible;"/>
															</clipPath>
															<g style="clip-path:url(#SVGID_00000115472488216018270700000013009487034893814186_);">
																<g>
																	<path style="fill:#B7CAE5;" d="M207.082,83.466l9.029,14.201l0,0l0.306,0.909c0.293,0.867-0.328,1.773-1.214,1.773
																		h-4.639l-9.963-16.882H207.082z"/>
																	<polygon style="fill:#B7CAE5;" points="198.066,83.466 207.295,100.349 205.236,100.349 196.639,84.773 
																		196.639,83.466 																	"/>
																</g>
																<g>
																	<path style="fill:#FFFFFF;" d="M207.082,83.466l9.029,14.201l0,0l0.306,0.909c0.293,0.867-0.328,1.773-1.214,1.773
																		h-4.639l-9.963-16.882H207.082z"/>
																	<polygon style="fill:#FFFFFF;" points="198.066,83.466 207.295,100.349 205.236,100.349 196.639,84.773 
																		196.639,83.466 																	"/>
																</g>
															</g>
														</g>
													</g>
													<g>
														<path style="fill:#D9E5F9;" d="M217.336,103.994v8.497c0,0.784-0.615,1.422-1.372,1.422h-11.46l-1.937-3.795
															c-0.979-1.923-2.565-3.492-4.463-4.418l-0.851-0.416v-2.513l18.959,0.054
															C216.831,102.827,217.336,103.351,217.336,103.994z"/>
														<g>
															<g>
																<defs>
																	<path id="SVGID_00000027582259573771788140000016672605037051322005_" d="M217.336,103.994v8.497
																		c0,0.784-0.615,1.422-1.372,1.422h-11.46l-1.937-3.795c-0.979-1.923-2.565-3.492-4.463-4.418l-0.851-0.416v-2.513
																		l18.959,0.054C216.831,102.827,217.336,103.351,217.336,103.994z"/>
																</defs>
																<clipPath id="SVGID_00000110460694264947251280000017899849516079028904_">
																	<use xlink:href="#SVGID_00000027582259573771788140000016672605037051322005_"  style="overflow:visible;"/>
																</clipPath>
																<g style="clip-path:url(#SVGID_00000110460694264947251280000017899849516079028904_);">
																	<polygon style="fill:#CBDBEF;" points="208.098,102.135 215.335,114.549 213.144,114.549 205.833,102.159 
																																			"/>
																	<path style="fill:#CBDBEF;" d="M217.949,103.994v8.496c0,0.17-0.025,0.334-0.063,0.491l-6.608-10.805l0,0
																		l4.935,0.014C217.173,102.193,217.949,102.998,217.949,103.994z"/>
																</g>
															</g>
															<g>
																<defs>
																	<path id="SVGID_00000163795132468383898090000003757948361311273400_" d="M217.336,103.994v8.497
																		c0,0.784-0.615,1.422-1.372,1.422h-11.46l-1.937-3.795c-0.979-1.923-2.565-3.492-4.463-4.418l-0.851-0.416v-2.513
																		l18.959,0.054C216.831,102.827,217.336,103.351,217.336,103.994z"/>
																</defs>
																<clipPath id="SVGID_00000008108710542313473870000006181156507020979121_">
																	<use xlink:href="#SVGID_00000163795132468383898090000003757948361311273400_"  style="overflow:visible;"/>
																</clipPath>
																<g style="clip-path:url(#SVGID_00000008108710542313473870000006181156507020979121_);">
																	<polygon style="fill:#FFFFFF;" points="208.098,102.135 215.335,114.549 213.144,114.549 205.833,102.159 
																																			"/>
																	<path style="fill:#FFFFFF;" d="M217.949,103.994v8.496c0,0.17-0.025,0.334-0.063,0.491l-6.608-10.805l0,0
																		l4.935,0.014C217.173,102.193,217.949,102.998,217.949,103.994z"/>
																</g>
															</g>
															<g>
																<defs>
																	<path id="SVGID_00000008845873935012381390000007395907834154562187_" d="M217.336,103.994v8.497
																		c0,0.784-0.615,1.422-1.372,1.422h-11.46l-1.937-3.795c-0.979-1.923-2.565-3.492-4.463-4.418l-0.851-0.416v-2.513
																		l18.959,0.054C216.831,102.827,217.336,103.351,217.336,103.994z"/>
																</defs>
																<clipPath id="SVGID_00000089566078191582154570000005842336730094800273_">
																	<use xlink:href="#SVGID_00000008845873935012381390000007395907834154562187_"  style="overflow:visible;"/>
																</clipPath>
															</g>
														</g>
													</g>
													<g>
														<path style="fill:#D9E5F9;" d="M184.589,86.569c0.132-1.406,1.26-2.467,2.626-2.467h6.372v23.636l-10.557-5.232
															L184.589,86.569z"/>
														<g>
															<defs>
																<path id="SVGID_00000042728555107031075280000013308065558618960565_" d="M184.589,86.569
																	c0.132-1.406,1.26-2.467,2.626-2.467h6.372v23.636l-10.557-5.232L184.589,86.569z"/>
															</defs>
															<clipPath id="SVGID_00000096765292657566896130000010036415514539625623_">
																<use xlink:href="#SVGID_00000042728555107031075280000013308065558618960565_"  style="overflow:visible;"/>
															</clipPath>
															<path style="clip-path:url(#SVGID_00000096765292657566896130000010036415514539625623_);fill:#FFFFFF;" d="
																M187.214,83.466l6.985,19.176v4.871l-8.647-23.567C186.041,83.644,186.607,83.466,187.214,83.466z"/>
														</g>
													</g>
												</g>
											</g>
										</g>
										<path style="fill:#C16C06;" d="M220.411,116.969L220.411,116.969c-0.268,2.652-3.786,4.301-6.575,4.301h-34.043
											c-2.651,0-4.799-2.227-4.799-4.972v-6.184c0-4.687,1.315-8.487,5.838-8.487c0,0,0.678,0.186,1.464,0.544l14.007,6.402
											c1.4,0.639,2.578,1.707,3.376,3.061l2.512,4.264c0.392,0.664,1.089,1.071,1.842,1.071H220.411z"/>
									</g>
								</g>
								<g>
									<polygon style="fill:#898989;" points="328.68,194.055 311.863,183.579 295.045,194.055 294.208,192.709 311.863,181.714 
										329.517,192.709 									"/>
									<g>
										<path style="fill:#755027;" d="M322.053,171.118h-20.381V94.125h20.381V171.118z M303.167,169.624h17.391V95.619h-17.391
											V169.624z"/>
										<g>
											<path style="fill:#755027;" d="M311.793,186.576c-2.453,0-4.614-1.477-5.504-3.763l2.459-0.959
												c0.493,1.265,1.688,2.08,3.045,2.08c1.801,0,3.267-1.464,3.267-3.266s-1.466-3.267-3.267-3.267v-2.64
												c3.257,0,5.907,2.65,5.907,5.907S315.05,186.576,311.793,186.576z"/>
											<polygon style="fill:#C16C06;" points="322.505,172.9 311.78,177.391 301.056,172.9 301.056,168.744 322.505,168.744 
																							"/>
											<g>
												<path style="fill:#ED8E26;" d="M308.667,168.744c0,1.725-1.398,3.123-3.124,3.123c-1.725,0-3.124-1.398-3.124-3.123
													c0-1.726,1.399-3.125,3.124-3.125C307.27,165.619,308.667,167.018,308.667,168.744z"/>
												<path style="fill:#C16C06;" d="M307.171,168.744c0,0.898-0.728,1.627-1.627,1.627c-0.899,0-1.628-0.729-1.628-1.627
													c0-0.899,0.729-1.627,1.628-1.627C306.443,167.116,307.171,167.844,307.171,168.744z"/>
											</g>
											<g>
												<path style="fill:#ED8E26;" d="M321.306,168.744c0,1.725-1.398,3.123-3.125,3.123c-1.725,0-3.124-1.398-3.124-3.123
													c0-1.726,1.399-3.125,3.124-3.125C319.908,165.619,321.306,167.018,321.306,168.744z"/>
												<path style="fill:#C16C06;" d="M319.809,168.744c0,0.898-0.728,1.627-1.628,1.627c-0.899,0-1.627-0.729-1.627-1.627
													c0-0.899,0.728-1.627,1.627-1.627C319.081,167.116,319.809,167.844,319.809,168.744z"/>
											</g>
										</g>
										<g>
											<path style="fill:#C16C06;" d="M326.135,93.189c0,1.331-1.079,2.41-2.409,2.41h-23.165c-1.33,0-2.409-1.079-2.409-2.41
												l0,0c0-1.331,1.079-2.409,2.409-2.409h23.165C325.056,90.78,326.135,91.858,326.135,93.189L326.135,93.189z"/>
											<g>
												<path style="fill:#ED8E26;" d="M308.667,95.599c0,1.724-1.398,3.122-3.124,3.122c-1.725,0-3.124-1.398-3.124-3.122
													c0-1.727,1.399-3.125,3.124-3.125C307.27,92.474,308.667,93.872,308.667,95.599z"/>
												<path style="fill:#C16C06;" d="M307.171,95.599c0,0.897-0.728,1.626-1.627,1.626c-0.899,0-1.628-0.729-1.628-1.626
													c0-0.9,0.729-1.628,1.628-1.628C306.443,93.97,307.171,94.699,307.171,95.599z"/>
											</g>
											<g>
												<path style="fill:#ED8E26;" d="M321.306,95.599c0,1.724-1.398,3.122-3.125,3.122c-1.725,0-3.124-1.398-3.124-3.122
													c0-1.727,1.399-3.125,3.124-3.125C319.908,92.474,321.306,93.872,321.306,95.599z"/>
												<path style="fill:#C16C06;" d="M319.809,95.599c0,0.897-0.728,1.626-1.628,1.626c-0.899,0-1.627-0.729-1.627-1.626
													c0-0.9,0.728-1.628,1.627-1.628C319.081,93.97,319.809,94.699,319.809,95.599z"/>
											</g>
										</g>
									</g>
									
										<rect x="319.689" y="177.861" transform="matrix(0.5287 -0.8488 0.8488 0.5287 -8.5437 360.6418)" style="fill:#898989;" width="1.584" height="20.306"/>
								</g>
								<g>
									<path style="fill:#C16C06;" d="M222.349,379.461c0,1.178-0.963,2.131-2.15,2.131h-43.542c-1.189,0-2.15-0.953-2.15-2.131
										v-6.96c0-1.179,0.962-2.132,2.15-2.132h43.542c1.188,0,2.15,0.954,2.15,2.132V379.461z"/>
									<g>
										<g>
											<path style="fill:#ED8E26;" d="M183.089,384.728c0,1.73-1.404,3.135-3.135,3.135c-1.731,0-3.135-1.405-3.135-3.135
												c0-1.732,1.404-3.136,3.135-3.136C181.685,381.592,183.089,382.996,183.089,384.728z"/>
											<path style="fill:#C16C06;" d="M181.804,384.728c0,1.022-0.829,1.85-1.85,1.85c-1.023,0-1.851-0.828-1.851-1.85
												s0.828-1.851,1.851-1.851C180.975,382.877,181.804,383.706,181.804,384.728z"/>
										</g>
										<g>
											<path style="fill:#ED8E26;" d="M220.707,384.728c0,1.73-1.405,3.135-3.136,3.135c-1.731,0-3.135-1.405-3.135-3.135
												c0-1.732,1.404-3.136,3.135-3.136C219.302,381.592,220.707,382.996,220.707,384.728z"/>
											<path style="fill:#C16C06;" d="M219.421,384.728c0,1.022-0.828,1.85-1.85,1.85c-1.021,0-1.85-0.828-1.85-1.85
												s0.829-1.851,1.85-1.851C218.593,382.877,219.421,383.706,219.421,384.728z"/>
										</g>
										<g>
											<path style="fill:#ED8E26;" d="M201.237,384.728c0,1.73-1.403,3.135-3.134,3.135c-1.732,0-3.135-1.405-3.135-3.135
												c0-1.732,1.403-3.136,3.135-3.136C199.834,381.592,201.237,382.996,201.237,384.728z"/>
											<path style="fill:#C16C06;" d="M199.953,384.728c0,1.022-0.828,1.85-1.85,1.85c-1.022,0-1.85-0.828-1.85-1.85
												s0.828-1.851,1.85-1.851C199.124,382.877,199.953,383.706,199.953,384.728z"/>
										</g>
									</g>
								</g>
							</g>
							<g>
								<path style="fill:#D87819;" d="M334.979,227.054v7.335h-47.14v-7.335v-34.723h47.14V227.054z M321.152,223.884v-21.049
									h-19.503v21.049H321.152z"/>
							</g>
						</g>
					</g>
				</g>
				<g>
					<g>
						<g>
							<g>
								<path style="fill:#5E3A17;" d="M359.45,271.553l15.102,15.083l1.377-0.717l-15.669-15.386l-0.384-0.212v0.031
									c-0.048,0.158-0.096,0.332-0.159,0.489l-0.045,0.096C359.672,270.938,359.609,271.142,359.45,271.553z"/>
								<path style="fill:#5E3A17;" d="M374.552,286.636l-0.521,0.522l19.201,18.9c3.421,1.608,6.321,2.996,8.723,4.311
									l-25.505-24.986l-0.857,0.197L374.552,286.636z"/>
							</g>
							<g>
								<path style="fill:#F7CD1C;" d="M344.366,283.533c0.566,0,1.087,0.157,1.543,0.44c0,0,2.444,1.136,6.339,2.932
									c9.772,4.557,28.672,13.353,40.984,19.153c3.421,1.608,6.321,2.996,8.386,3.973c1.151,0.568,2.05,1.009,2.617,1.292
									c6.81,3.454,5.864,4.319,4.918,6.053c-1.041-1.638-2.853-2.726-4.934-2.726c-3.216,0-5.833,2.617-5.833,5.833
									c0,0.362,0.032,0.726,0.095,1.071l0.521,5.092l-50.018-33.513v-0.016l-6.652-4.445c-0.568-0.553-0.93-1.325-0.93-2.178
									c0-0.409,0.079-0.804,0.236-1.149C342.079,284.272,343.135,283.533,344.366,283.533z M344.366,287.237
									c0.409,0,0.741-0.332,0.741-0.742c0-0.409-0.331-0.74-0.741-0.74c-0.411,0-0.742,0.332-0.742,0.74
									C343.624,286.905,343.955,287.237,344.366,287.237z M394.13,315.642c0.82,0,1.483-0.662,1.483-1.48
									c0-0.821-0.663-1.483-1.483-1.483c-0.819,0-1.48,0.662-1.48,1.483C392.649,314.98,393.311,315.642,394.13,315.642z"/>
								<path style="fill:#5E3A17;" d="M344.367,284.573c-1.067,0-1.927,0.858-1.927,1.921c0,1.062,0.86,1.926,1.927,1.926
									c1.062,0,1.921-0.864,1.921-1.926C346.289,285.431,345.429,284.573,344.367,284.573z"/>
								<path style="fill:#5E3A17;" d="M393.539,312.186c-1.418,0-2.565,1.146-2.565,2.566c0,1.417,1.147,2.564,2.565,2.564
									c1.419,0,2.566-1.147,2.566-2.564C396.105,313.332,394.958,312.186,393.539,312.186z"/>
							</g>
							<g>
								<path style="fill:#F7CD1C;" d="M342.883,280.08c0,0,2.523-1.813,5.313-4.161c2.79-2.348,5.818-5.218,6.841-7.3
									c0.427-0.819,1.293-1.387,2.286-1.387c1.436,0,2.602,1.168,2.602,2.602c0,0.158-0.018,0.332-0.048,0.488v0.031l-0.442,1.182
									l0.016,0.018c-0.645,1.623-2.664,6.509-7.202,15.352c-3.895-1.795-6.339-2.932-6.339-2.932
									c-0.456-0.283-0.977-0.44-1.543-0.44c-1.23,0-2.287,0.739-2.728,1.812l-1.324-0.488
									C341.89,281.925,342.883,280.08,342.883,280.08z M357.323,270.196c0.204,0,0.379-0.157,0.379-0.362
									c0-0.204-0.174-0.379-0.379-0.379c-0.205,0-0.364,0.175-0.364,0.379C356.959,270.039,357.118,270.196,357.323,270.196z"/>
								<path style="fill:#41383D;" d="M357.323,269.454c-0.205,0-0.364,0.175-0.364,0.379c0,0.206,0.159,0.362,0.364,0.362
									c0.204,0,0.379-0.157,0.379-0.362C357.702,269.629,357.527,269.454,357.323,269.454z"/>
								<g>
									<path style="fill:#5E3A17;" d="M357.292,271.321c0.857,0,1.554-0.695,1.554-1.55c0-0.857-0.698-1.551-1.554-1.551
										c-0.854,0-1.552,0.694-1.552,1.551C355.74,270.626,356.437,271.321,357.292,271.321z"/>
								</g>
								<g>
									<polygon style="fill:#5E3A17;" points="318.055,326.11 312.806,335.41 313.5,335.837 314.083,336.166 319.348,326.834 
										318.702,326.472 									"/>
									<g>
										
											<rect x="316.49" y="322.297" transform="matrix(0.4912 -0.871 0.871 0.4912 -117.8778 443.5692)" style="fill:#5E3A17;" width="8.556" height="0.788"/>
									</g>
								</g>
								<g>
									<path style="fill:#F7CD1C;" d="M315.597,336.166l-1.071,1.654c0,0,5.786,7.897,6.288,8.513h0.017
										c-0.126-1.545-0.222-3.106-0.285-4.682c0-0.489,0.095-0.962,0.268-1.386L315.597,336.166z"/>
									<path style="fill:#F7CD1C;" d="M315.218,336.877l3.83,2.349c0,0,19.515-26.91,28.768-43.965
										c0.395-0.726,0.789-1.435,1.168-2.128v-0.016l-6.652-4.445c-0.568-0.553-0.93-1.325-0.93-2.178
										c0-0.409,0.079-0.804,0.236-1.149l-1.324-0.488c-4.384,8.102-13.273,24.59-18.176,33.749c0,0,0.394,0.095,0.773,0.427
										c0.647,0.55,1.229,1.747-0.157,4.239C320.531,327.245,315.218,336.877,315.218,336.877z"/>
									<path style="fill:#F7CD1C;" d="M312.806,333.641c-0.507,0.382-0.609,1.102-0.226,1.611l4.7,6.242
										c0.382,0.508,1.102,0.61,1.611,0.227l0,0c0.507-0.382,0.608-1.103,0.226-1.611l-4.7-6.242
										C314.034,333.359,313.314,333.258,312.806,333.641L312.806,333.641z"/>
								</g>
							</g>
							<g>
								<path style="fill:#5E3A17;" d="M329.226,340.934l-2.516-1.835c-0.614-0.6-1.45-1.01-2.364-1.042
									c-0.064-0.015-0.126-0.015-0.189-0.015c-1.513,0-2.79,0.915-3.342,2.223c-0.172,0.424-0.268,0.897-0.268,1.386
									c0.063,1.576,0.158,3.137,0.285,4.682c0.079,1.309,0.188,2.602,0.299,3.847l5.989-7.141l2.318,1.679
									C329.047,343.518,328.991,342.201,329.226,340.934z M324.156,343.039c-0.773,0-1.387-0.615-1.387-1.388
									c0-0.756,0.614-1.386,1.387-1.386c0.773,0,1.387,0.63,1.387,1.386C325.543,342.424,324.929,343.039,324.156,343.039z"/>
								<path style="fill:#F7CD1C;" d="M352.109,360.596l-24.811-17.969l-6.168,7.553c0.095,1.055,0.189,2.065,0.299,3.059
									c0.047,0.503,0.11,1.007,0.158,1.482c0.394,3.563,0.82,6.605,1.119,8.716c0.096,0.552,0.174,1.042,0.237,1.467
									c0.172,1.121,0.283,1.75,0.283,1.75c1.94,2.064,4.082,3.657,6.306,4.854c0.695,0.379,1.42,0.726,2.127,1.024
									c9.647,4.116,20.288,1.641,23.883-1.339c1.577-1.293,3.516-3.39,5.391-5.628h0.016c0.521-0.615,1.04-1.26,1.546-1.89
									c1.655-2.034,3.345-4.449,4.417-5.869L352.109,360.596z"/>
								<g>
									<path style="fill:#5E3A17;" d="M369.546,356.017c0.141,0.733-0.339,1.441-1.072,1.582l-15.826,3.061
										c-0.732,0.141-1.44-0.34-1.58-1.073l0,0c-0.14-0.732,0.339-1.44,1.072-1.58l15.826-3.061
										C368.699,354.805,369.407,355.284,369.546,356.017L369.546,356.017z"/>
									<path style="fill:#5E3A17;" d="M353.41,360.111c-0.434,0.607-1.276,0.748-1.884,0.314l-26.949-19.59
										c-0.607-0.434-0.748-1.278-0.315-1.885l0,0c0.435-0.607,1.277-0.747,1.884-0.314l26.95,19.59
										C353.703,358.66,353.844,359.504,353.41,360.111L353.41,360.111z"/>
								</g>
								<path style="fill:#FFFFFF;" d="M324.156,340.265c-0.773,0-1.387,0.63-1.387,1.386c0,0.772,0.614,1.388,1.387,1.388
									c0.773,0,1.387-0.615,1.387-1.388C325.543,340.895,324.929,340.265,324.156,340.265z"/>
							</g>
						</g>
						<g>
							<polygon style="fill:#755027;" points="436.705,368.189 401.447,368.189 399.915,362.118 438.24,362.118 							"/>
							<g>
								<path style="fill:#5E3A17;" d="M466.402,388.192L466.402,388.192c-35.979,0.933-57.635,0.933-93.615,0h-0.018
									c-8.738-0.227-12.486-4.831-12.486-10.434c0-5.604,3.748-10.208,12.486-10.435h0.018c35.98-0.932,57.636-0.932,93.615,0l0,0
									c8.737,0.227,12.119,4.831,12.119,10.435l0,0C478.521,383.361,475.139,387.965,466.402,388.192z"/>
								<rect x="374.648" y="373.567" style="fill:#ED8E26;" width="88.283" height="8.38"/>
								<path style="fill:#C16C06;" d="M378.788,377.758c0,3.697-2.996,6.691-6.693,6.691c-3.696,0-6.691-2.995-6.691-6.691
									c0-3.698,2.995-6.692,6.691-6.692C375.792,371.066,378.788,374.06,378.788,377.758z"/>
								<path style="fill:#ED8E26;" d="M376.829,377.758c0,2.611-2.12,4.731-4.734,4.731c-2.612,0-4.732-2.12-4.732-4.731
									c0-2.614,2.12-4.733,4.732-4.733C374.71,373.026,376.829,375.144,376.829,377.758z"/>
								<path style="fill:#C16C06;" d="M473.133,377.758c0,3.626-2.941,6.566-6.566,6.566c-3.626,0-6.568-2.939-6.568-6.566
									c0-3.628,2.942-6.566,6.568-6.566C470.192,371.192,473.133,374.13,473.133,377.758z"/>
								<path style="fill:#ED8E26;" d="M471.21,377.758c0,2.563-2.079,4.642-4.643,4.642c-2.567,0-4.645-2.079-4.645-4.642
									c0-2.567,2.078-4.644,4.645-4.644C469.131,373.115,471.21,375.191,471.21,377.758z"/>
							</g>
							<g>
								<g>
									<path style="fill:#5E3A17;" d="M449.15,335.137l-2.016-22.067c-0.369-4.047-3.762-7.146-7.828-7.146H406.33
										c-3.013,0-5.705,1.873-6.753,4.695l-5.645,15.2c-1.507,4.055-2.279,8.347-2.279,12.675v17.595l60.419,1.004L449.15,335.137
										z"/>
									<g>
										<g>
											<path style="fill:#D9E5F9;" d="M425.275,332.795h-26.952c-1.287,0-2.188-1.27-1.764-2.483l6.345-18.127
												c0.638-1.827,2.361-3.048,4.295-3.048h18.075V332.795z"/>
											<path style="fill:#FFFFFF;" d="M410.114,309.138l-13.108,19.9l0,0l-0.446,1.274c-0.424,1.214,0.477,2.483,1.764,2.483
												h6.734l14.465-23.658H410.114z"/>
											<polygon style="fill:#FFFFFF;" points="423.205,309.138 409.806,332.795 412.795,332.795 425.275,310.968 
												425.275,309.138 											"/>
										</g>
										<g>
											<path style="fill:#D9E5F9;" d="M425.275,335.299v4.978l-1.746,0.823c-2.598,1.225-4.73,3.26-6.074,5.803l-3.061,5.794
												h-17.174c-1.592,0-2.883-1.292-2.883-2.883v-11.91c0-1.394,1.127-2.523,2.521-2.528L425.275,335.299z"/>
											<polygon style="fill:#FFFFFF;" points="408.641,335.299 398.134,352.697 401.316,352.697 411.928,335.335 											"/>
											<path style="fill:#FFFFFF;" d="M394.338,337.904v11.909c0,0.239,0.037,0.467,0.093,0.688l9.593-15.143l0,0l-7.165,0.018
												C395.465,335.381,394.338,336.51,394.338,337.904z"/>
										</g>
										<g>
											<path style="fill:#D9E5F9;" d="M445.792,335.35l-2.135-21.951c-0.235-2.417-2.267-4.261-4.696-4.261h-10.142v35.517
												L445.792,335.35z"/>
											<path style="fill:#FFFFFF;" d="M438.961,309.138l-10.142,26.872v6.828l12.554-33.03
												C440.664,309.384,439.842,309.138,438.961,309.138z"/>
										</g>
									</g>
								</g>
								<path style="fill:#F7CD1C;" d="M391.653,356.089L391.653,356.089c1.7,3.675,5.379,6.029,9.429,6.029h60.603
									c3.849,0,6.968-3.121,6.968-6.971v-8.665c0-6.569-5.324-11.895-11.893-11.895h-7.344c-1.247,0-2.48,0.26-3.623,0.763
									l-20.337,8.972c-2.032,0.897-3.741,2.394-4.899,4.291l-3.646,5.975c-0.57,0.932-1.583,1.501-2.675,1.501H391.653z"/>
							</g>
						</g>
					</g>
					<g>
						<path style="fill:#FBB020;" d="M458.629,339.363v18.688c0,0.944,0.737,1.709,1.644,1.709c0.912,0,1.65-0.765,1.65-1.709
							v-18.688c0-0.943-0.738-1.707-1.65-1.707C459.366,337.656,458.629,338.42,458.629,339.363z"/>
						<path style="fill:#FBB020;" d="M450.865,339.363v18.688c0,0.944,0.737,1.709,1.65,1.709c0.912,0,1.649-0.765,1.649-1.709
							v-18.688c0-0.943-0.737-1.707-1.649-1.707C451.602,337.656,450.865,338.42,450.865,339.363z"/>
						<path style="fill:#FBB020;" d="M443.107,340.762v17.289c0,0.944,0.737,1.709,1.649,1.709c0.913,0,1.65-0.765,1.65-1.709
							v-17.289c0-0.944-0.738-1.707-1.65-1.707C443.845,339.055,443.107,339.818,443.107,340.762z"/>
						<path style="fill:#FBB020;" d="M435.35,345.207v12.843c0,0.944,0.732,1.709,1.645,1.709c0.913,0,1.65-0.765,1.65-1.709
							v-12.843c0-0.941-0.737-1.707-1.65-1.707C436.081,343.5,435.35,344.266,435.35,345.207z"/>
						<path style="fill:#FBB020;" d="M427.586,349.561v8.489c0,0.944,0.737,1.709,1.65,1.709c0.913,0,1.649-0.765,1.649-1.709
							v-8.489c0-0.943-0.736-1.706-1.649-1.706C428.323,347.855,427.586,348.618,427.586,349.561z"/>
					</g>
					<polygon style="fill:#FBB020;" points="352.248,286.905 348.984,293.118 350.119,293.894 352.758,287.143 					"/>
					<polygon style="fill:#FBB020;" points="315.848,335.77 319.209,339.004 319.781,338.209 316.027,335.412 					"/>
				</g>
			</g>
			<g>
				<g>
					<g>
						<g>
							<path style="fill-rule:evenodd;clip-rule:evenodd;fill:#936435;" d="M95.986,266.403c1.382,1.632,2.852,3.17,4.293,4.707
								c-0.45,0.688-1.099,1.04-1.345,1.848c-0.291,0.957-0.556,2.376-0.479,3.567c0.098,1.541,0.078,2.6-0.306,4.374
								c-0.257,0.583-0.616,0.508-0.695,0.492c-1.311-3.461-2.515-7.657-3.925-11.547c-0.027-0.076-0.688-1.668-0.688-1.668
								c0.154-0.184,1.364-0.927,1.573-1.045C94.987,266.801,95.406,266.573,95.986,266.403"/>
							<path style="fill-rule:evenodd;clip-rule:evenodd;fill:#5E3A17;" d="M97.454,281.391l-4.614-13.215
								C94.324,268.926,98.868,278.063,97.454,281.391"/>
							<path style="fill-rule:evenodd;clip-rule:evenodd;fill:#F2B891;" d="M95.986,266.403c0.594,0.524,2.691,3.261,4.293,4.707
								C98.31,270.265,96.623,268.518,95.986,266.403"/>
						</g>
						<g>
							<path style="fill-rule:evenodd;clip-rule:evenodd;fill:#ED8E26;" d="M84.503,205.612c5.048,0.216,8.226,4.906,11.323,8.629
								c5.271,6.34,10.475,12.196,15.568,19.005c1.238,1.656,2.424,3.392,3.552,5.155c1.56,2.436,3.368,5.05,3.158,8.646
								c-0.158,2.706-1.541,5.104-2.889,7.361c-3.219,5.392-7.72,10.072-11.897,15.03c-0.293,0.349-0.696,0.827-1.237,1.469
								c-0.234,0.278-1.263,1.473-1.236,1.47c-0.285,0.044-2.006-1.289-2.52-1.697c-2.408-1.91-4.684-3.688-7.025-5.415
								c3.623-7.107,7.609-13.95,10.763-21.395c-1.926-2.499-3.986-4.472-6.247-7.095c-1.27-1.474-3.116-3.65-4.591-5.432
								c-0.458-0.555-1.24-1.374-1.391-1.827c-0.262-0.8-0.09-2.113-0.133-3.166c-0.126-2.903-0.419-6.352-1.129-9.546
								C87.629,212.564,86.086,209.107,84.503,205.612z"/>
							<path style="fill:#D87819;" d="M89.702,226.35c0.043,1.053-0.129,2.365,0.133,3.166c0.151,0.452,0.933,1.272,1.391,1.827
								c1.476,1.782,3.321,3.958,4.591,5.432c2.26,2.623,4.32,4.597,6.247,7.095c-3.154,7.445-7.14,14.288-10.763,21.395
								c0.115,0.085,0.23,0.172,0.344,0.257c0.661-0.59,1.371-1.135,2.126-1.625c3.549-6.916,7.413-13.604,10.487-20.861
								c-1.926-2.5-3.986-4.474-6.246-7.096c-1.271-1.474-3.116-3.65-4.592-5.433c-0.458-0.553-1.241-1.374-1.39-1.827
								c-0.263-0.799-0.09-2.111-0.136-3.166c-0.123-2.902-0.416-6.352-1.126-9.544c-0.811-3.642-2.064-6.704-3.404-9.709
								c-0.887-0.369-1.833-0.605-2.86-0.649c1.583,3.495,3.126,6.952,4.07,11.192C89.283,219.998,89.576,223.448,89.702,226.35z"/>
							<path style="fill-rule:evenodd;clip-rule:evenodd;fill:#D87819;" d="M90.379,227.249c0.043,1.101-0.169,2.475,0.129,3.308
								c0.17,0.473,1.075,1.323,1.604,1.899c1.085,1.177,3.509,4.089,3.509,4.089c1.395-2.042,3.585-27.356-9.682-30.744
								c1.813,3.64,2.146,7.054,3.209,11.48C89.947,220.613,90.26,224.215,90.379,227.249z"/>
							<polygon style="fill:#D87819;" points="104.044,243.537 105.514,240.238 102.164,243.656 							"/>
						</g>
					</g>
					<g>
						<g>
							<g>
								<path style="fill-rule:evenodd;clip-rule:evenodd;fill:#936435;" d="M117.189,396.911c0,0,2.012,9.89,4.008,11.794
									c0,0-3.792,2.735-11.363-2.057l-2.535-8.866L117.189,396.911z"/>
								<path style="fill-rule:evenodd;clip-rule:evenodd;fill:#5E3A17;" d="M107.299,397.782c1.145,2.171,7.63,2.767,10.094,0.418
									L107.299,397.782"/>
							</g>
							<path style="fill-rule:evenodd;clip-rule:evenodd;fill:#131E66;" d="M108.169,401.591c3.917-0.046,7.808-0.063,11.518,0.098
								c0.406-0.065,0.13,0.556,0.214,0.808c0.834,2.154,3.204,3.737,5.496,4.608c3.512,1.336,7.905,1.608,7.873,6.209
								c-0.244,0.373-1.046,0.211-1.643,0.216c-8.61,0.08-17.096-0.127-25.742-0.064c0.065-2.16,0.274-4.089,0.696-5.983
								c0.419-1.899,0.854-3.721,1.387-5.583C107.96,401.726,108.039,401.636,108.169,401.591"/>
						</g>
						<g>
							<g>
								<path style="fill-rule:evenodd;clip-rule:evenodd;fill:#936435;" d="M71.851,396.97c0,0,2.013,9.891,4.008,11.794
									c0,0-3.791,2.736-11.362-2.055l-2.535-8.867L71.851,396.97z"/>
								<path style="fill-rule:evenodd;clip-rule:evenodd;fill:#5E3A17;" d="M61.961,397.841c1.146,2.171,7.494,2.433,10.088,0.418
									L61.961,397.841"/>
							</g>
							<path style="fill-rule:evenodd;clip-rule:evenodd;fill:#131E66;" d="M62.831,401.65c3.917-0.046,7.807-0.063,11.518,0.098
								c0.405-0.064,0.129,0.557,0.213,0.81c0.834,2.154,5.569,3.734,7.861,4.604c3.512,1.337,8.753,1.606,8.721,6.207
								c-0.244,0.373-1.045,0.211-1.642,0.217c-8.61,0.078-18.895,0.172-27.542,0.234c0,0-0.181-6.18,0.668-11.861
								C62.655,401.786,62.7,401.696,62.831,401.65"/>
						</g>
						<g>
							<path style="fill:#131E66;" d="M118.296,397.974c-2.116-12.403-4.496-24.949-6.531-37.632
								c-1.009-6.299-2.004-12.62-3.156-18.923c-1.153-6.319-2.003-12.703-3.156-18.994c-1.111-6.078-2.259-12.378-3.446-18.637
								c-2.39-12.598-4.298-24.938-8.494-35.693c-1.074-2.753-2.33-5.398-3.962-7.672l-31.816,0.042
								c-1.437,2.196-2.67,4.6-3.461,7.466c-1.457,5.277-1.805,11.529-1.795,18.285c0.008,6.588,0.141,13.178,0.462,19.645
								c0.959,19.311,2.653,37.568,4.225,56.203c1.012,11.992,2.086,23.997,2.676,36.212l14.276-0.018
								c-0.007-0.29,0-0.627-0.014-0.941c-0.021-0.514-0.002-1.122-0.002-1.648c-0.01-7.692-0.242-15.334-0.103-22.729
								c0.239-12.788,0.191-26.047,0.53-38.643c0.29-10.753,0.652-21.303,1.268-31.477c0.126-2.069,0.127-4.149,0.428-6.167
								c4.479,17.698,8.921,35.115,13.83,52.176c4.84,16.819,10.628,33.051,15.788,49.386l12.479-0.016
								C118.322,398.198,118.339,398.109,118.296,397.974z"/>
							<path style="fill:#091238;" d="M105.844,398.214l3.985-0.004c-0.117-0.36-0.302-0.818-0.415-1.228
								c-1.255-4.52-2.462-9.381-3.587-13.617c-1.451-5.474-2.755-10.502-4.098-15.624c-2.762-10.542-5.534-20.749-8.196-31.249
								c-5.149-20.314-10.632-40.216-15.879-60.49c-0.29-1.124-0.366-2.043-1.094-1.576c-0.273,0.333-0.028,1.696,0.003,2.438
								c0.041,0.985,0.028,1.931,0.003,2.723c-0.117,3.827-0.197,7.022-0.35,10.54c-0.077,1.756-0.24,4.848,0.009,6.524
								c4.479,17.698,8.921,35.115,13.83,52.176C94.896,365.647,100.684,381.879,105.844,398.214z"/>
							<path style="fill:#091238;" d="M59,347.014c-0.538-6.463-0.919-12.953-1.231-19.614c-0.302-6.501-0.619-13.252-0.628-20.072
								c-0.004-3.433-0.009-6.909-0.014-10.341c-0.004-3.408,0.249-6.778,0.244-10.112c-0.004-3.172,0.176-6.598,0.417-9.885
								c0.449-6.134,1.133-11.568,2.585-16.528l-2.639,0.003c-1.437,2.196-2.67,4.6-3.461,7.466
								c-1.457,5.277-1.805,11.529-1.795,18.285c0.008,6.588,0.141,13.178,0.462,19.645c0.959,19.311,2.653,37.568,4.225,56.203
								c1.012,11.992,2.086,23.997,2.676,36.212l3.759-0.005c-1.555-10.348-2.478-20.983-3.284-31.792
								C59.835,360.028,59.534,353.423,59,347.014z"/>
						</g>
					</g>
					<g>
						<path style="fill-rule:evenodd;clip-rule:evenodd;fill:#ED8E26;" d="M94.67,269.144c-13.492,2.779-30.157,2.98-42.285,0.7
							c1.389-13.679-0.797-29.509-1.582-42.899c-0.822-14.055,6.099-23.214,18.942-25.508c2.644-0.473,6.487-0.517,8.906,0.279
							c3.247,1.068,7.514,4.774,9.333,7.572c2.256,3.468,3.261,8.034,3.694,13.248c0.412,4.971-0.269,10.252-0.034,15.29
							c0.245,5.26,1.522,10.512,2.228,15.423C94.661,258.734,94.953,264.119,94.67,269.144z"/>
						<g>
							<g>
								<path style="fill:#F7CD1C;" d="M71.415,216.958c-1.212-4.973-2.248-11.057-5.059-14.699
									c-11.279,2.848-16.299,12.422-15.551,25.706c0.785,13.933,2.971,30.405,1.584,44.64c7.615,1.49,17.017,1.961,26.3,1.39
									c-0.977-12.679-2.43-25.855-4.082-38.054C73.721,229.409,72.841,222.815,71.415,216.958z"/>
								<path style="fill:#E2BA13;" d="M53.906,227.959c-0.69-12.238,3.522-21.323,13.011-24.904
									c-0.18-0.276-0.365-0.543-0.56-0.796c-11.279,2.848-16.299,12.422-15.551,25.706c0.785,13.933,2.971,30.405,1.584,44.64
									c5.985,1.172,13.074,1.71,20.342,1.61c-6.17-0.071-12.111-0.611-17.24-1.614C56.876,258.365,54.69,241.893,53.906,227.959z"
									/>
							</g>
							<path style="fill:#F7CD1C;" d="M95.429,255.335c-0.78-5.111-2.19-10.575-2.461-16.049
								c-0.259-5.243,0.494-10.737,0.039-15.909c-0.477-5.425-1.21-10.199-3.701-13.807c-1.951-2.826-6.823-6.513-10.365-7.746
								c6.789,11.113,9.363,33.722,5.655,71.722c4.034-0.39,7.981-0.945,11.711-1.67C96.621,266.647,96.298,261.043,95.429,255.335z
								"/>
						</g>
						<g>
							<g>
								<path style="fill-rule:evenodd;clip-rule:evenodd;fill:#936435;" d="M81.519,198.618l0.177,5.022
									c-1.888,4.774-8.858,4.644-11.898,2.482c-1.979-1.406-1.723-2.562-1.787-4.618c-0.085-2.785-0.205-5.639-0.187-8.335
									c-0.983-0.023-2.552-0.653-3.274-2.005c-0.544-1.027-0.263-2.439,0.89-2.87c-1.927-5.409-1.435-10.392,3.719-13.5
									c4.848-2.924,11.008-2.211,14.146,2.086c4.111,5.632,5.248,13.25,3.693,17.461
									C86.282,196.285,84.425,198.603,81.519,198.618"/>
								<path style="fill-rule:evenodd;clip-rule:evenodd;fill:#131E66;" d="M81.144,169.696c-1.456,0.066-3.937,0.898-6.099,1.779
									c-1.645,0.667-3.137,0.875-4.643,1.581c-2.377,1.116-3.585,2.09-4.367,3.436c-0.331,0.568-0.342,1.36-0.829,2.105
									c-0.316,0.478-0.692,0.457-1.413,1.449c-1.895,2.6-1.147,5.971,1.647,8.25c0.749,0.062,1.076,0.041,1.715,0.364
									c1.249,0.634,2.287,2.835,3.398,2.228c1.295-0.707-0.404-3.258-0.457-4.923c-0.064-2.017,1.606-3.56,1.92-5.23
									c0.152-0.82,0.13-1.551,0.044-2.246c2.398,1.715,6.276,1.319,10.226-1.031c0.294-0.176,0.606-0.398,0.92-0.648
									C82.498,174.469,81.887,172.081,81.144,169.696z"/>
								<g>
									<path style="fill-rule:evenodd;clip-rule:evenodd;fill:#5E3A17;" d="M74.131,196.424c2.008,1.27,5.139,2.379,7.389,2.193
										l0.093,2.637C80.129,201.412,75.89,200.895,74.131,196.424"/>
									<g>
										<path style="fill-rule:evenodd;clip-rule:evenodd;fill:#131E66;" d="M85.924,180.713c0.042,0.316-0.929,0.695-2.164,0.841
											c-1.233,0.149-2.266,0.013-2.305-0.306c-0.042-0.317,0.926-0.693,2.162-0.842
											C84.852,180.26,85.884,180.395,85.924,180.713"/>
										<path style="fill-rule:evenodd;clip-rule:evenodd;fill:#131E66;" d="M85.585,184.228c0.129,0.531-0.086,1.04-0.479,1.134
											c-0.395,0.094-0.823-0.261-0.952-0.793c-0.131-0.531,0.083-1.04,0.478-1.134C85.023,183.34,85.455,183.695,85.585,184.228
											"/>
										<path style="fill-rule:evenodd;clip-rule:evenodd;fill:#131E66;" d="M79.159,181.875c0.129,0.291-0.701,0.917-1.842,1.392
											c-1.148,0.478-2.18,0.625-2.306,0.332c-0.126-0.295,0.701-0.92,1.846-1.398C78.003,181.725,79.033,181.579,79.159,181.875
											"/>
										<path style="fill-rule:evenodd;clip-rule:evenodd;fill:#131E66;" d="M78.342,186.343c0.132,0.531-0.079,1.039-0.476,1.134
											c-0.392,0.094-0.822-0.261-0.951-0.794c-0.133-0.53,0.084-1.038,0.479-1.134C77.788,185.456,78.214,185.81,78.342,186.343
											"/>
										<path style="fill:#5E3A17;" d="M82.603,189.418c0.019-0.004,0.036-0.009,0.055-0.016c0.487-0.198,0.796-0.473,0.949-0.844
											c0.305-0.746-0.113-1.681-0.64-2.864c-0.337-0.752-0.72-1.605-0.976-2.549c-0.048-0.17-0.23-0.277-0.403-0.228
											c-0.177,0.047-0.283,0.224-0.235,0.398c0.271,0.99,0.663,1.867,1.009,2.643c0.448,1,0.836,1.863,0.637,2.355
											c-0.085,0.2-0.276,0.36-0.591,0.486c-0.169,0.068-0.248,0.258-0.179,0.426C82.288,189.372,82.449,189.451,82.603,189.418"
											/>
										<path style="fill:#5E3A17;" d="M82.87,193.539c-0.288-0.008-0.614-0.054-0.98-0.16c-0.153-0.046-0.241-0.206-0.197-0.355
											c0.043-0.153,0.208-0.238,0.36-0.193c1.64,0.469,2.19-0.461,2.215-0.502c0.077-0.136,0.254-0.187,0.395-0.111
											c0.142,0.074,0.189,0.246,0.117,0.384C84.753,192.649,84.234,193.563,82.87,193.539"/>
									</g>
								</g>
								<g>
									<path style="fill:#FBB020;" d="M85.659,177.71c0,0-6.838,2.999-13.883,3.209c-7.043,0.21-9.181,2.611-9.181,2.611
										l-0.759-2.673c-1.772-6.234,1.922-12.702,8.251-14.447c6.33-1.744,12.897,1.893,14.669,8.126L85.659,177.71z"/>
									<path style="fill:#DB8914;" d="M69.027,166.759c-0.37,0.14-0.729,0.297-1.077,0.469c5.591-0.43,10.952,3.224,12.577,8.942
										l0.869,3.056c0.835-0.25,1.576-0.497,2.197-0.718l-0.839-2.952C81.018,169.447,75.019,165.692,69.027,166.759"/>
									<g>
										<path style="fill:#FFFFFF;" d="M64.13,180.455L64.13,180.455c-0.263,0.073-0.537-0.078-0.612-0.338l-0.331-1.165
											c-0.074-0.261,0.081-0.529,0.345-0.602c0.264-0.073,0.538,0.08,0.612,0.34l0.331,1.165
											C64.549,180.112,64.395,180.384,64.13,180.455"/>
										<path style="fill:#FFFFFF;" d="M65.614,180.046L65.614,180.046c-0.264,0.074-0.539-0.077-0.613-0.338l-0.331-1.165
											c-0.074-0.261,0.08-0.53,0.344-0.603c0.265-0.073,0.539,0.079,0.614,0.339l0.331,1.165
											C66.032,179.704,65.876,179.975,65.614,180.046"/>
										<path style="fill:#FFFFFF;" d="M67.096,179.638L67.096,179.638c-0.265,0.073-0.539-0.078-0.612-0.339l-0.332-1.165
											c-0.074-0.259,0.081-0.527,0.345-0.601c0.264-0.073,0.538,0.079,0.613,0.338l0.33,1.165
											C67.514,179.294,67.36,179.566,67.096,179.638"/>
									</g>
									<g>
										<path style="fill:#DB8914;" d="M61.629,182.965c0.138,0.524,0.69,0.837,1.232,0.697l22.63-5.784
											c0.542-0.139,0.87-0.675,0.733-1.201l0,0c-0.139-0.523-0.691-0.836-1.233-0.698l-22.629,5.784
											C61.819,181.902,61.491,182.441,61.629,182.965L61.629,182.965z"/>
										<path style="fill:#DB8914;" d="M71.663,183.124l16.703-4.46c0.653-0.166,1.071-0.729,0.932-1.254l0,0
											c-0.139-0.526-0.762-0.597-1.435-0.65c-0.665-0.055-2.217-0.125-2.217-0.125l-20.864,5.524
											C64.782,182.159,70.26,183.484,71.663,183.124z"/>
									</g>
								</g>
							</g>
							<g>
								<path style="fill-rule:evenodd;clip-rule:evenodd;fill:#FFFFFF;" d="M76.608,205.455c-1.427,1.435,2.012,6.58,2.973,6.588
									c0.629,0.004,3.226-3.76,4.28-5.177c0.442-0.595,1.038-1.374,0.931-2.187c-0.106-0.796-1.453-1.975-1.998-2.477
									c-0.541-0.498-1.298,0.05-2.02,0.472C80.304,202.95,77.292,204.871,76.608,205.455z"/>
								<path style="fill-rule:evenodd;clip-rule:evenodd;fill:#FFFFFF;" d="M76.004,205.443c1.578,1.426-1.666,7.004-2.665,7.063
									c-0.652,0.039-6.399-5.022-7.584-6.448c-0.499-0.601-1.168-1.384-1.108-2.241c0.059-0.843,1.381-2.149,1.916-2.706
									c0.53-0.55,1.354-0.017,2.128,0.387C69.201,201.762,75.26,204.867,76.004,205.443z"/>
							</g>
						</g>
					</g>
					<g>
						<g>
							<path style="fill-rule:evenodd;clip-rule:evenodd;fill:#936435;" d="M63.983,286.738c-0.053,0.413-0.265,1.377-1.119,1.339
								c-0.773-0.034-1.623-2.271-2.281-3.438c-0.694-1.228-1.185-2.646-1.992-3.824c-0.572-0.832-1.546-1.589-2.316-2.222
								c-0.823-0.678-1.926-1.152-2.51-1.862c-1.298-1.576-1.342-3.963-1.62-5.931c2.291-1.094,5.588-2.802,7.493-3.982
								c0.549,1.532,1.836,2.332,2.981,3.317c1.61,1.383,3.021,2.5,4.583,4.195c0.781,0.849,1.603,1.727,1.958,2.728
								c0.36,1.004,0.26,2.138,0.162,3.167c-0.093,0.951-0.093,2.508-0.966,2.498c-0.782-0.011-0.648-1.882-1.035-2.704
								c-0.85-1.793-2.336-2.618-2.43-2.59c0.711,1.583,1.896,3.85,1.754,5.703C66.576,284.067,65.606,288.936,63.983,286.738"/>
							<path style="fill-rule:evenodd;clip-rule:evenodd;fill:#F2B891;" d="M59.639,266.818c-0.868,1.736-4.875,4.728-7.493,3.982
								C53.211,270.235,58.509,267.56,59.639,266.818"/>
							<path style="fill-rule:evenodd;clip-rule:evenodd;fill:#5E3A17;" d="M58.564,280.727c-1.088-1.214-1.834-1.801-2.653-2.325
								c-1.695-1.086-3.413-2.284-3.456-5.167C53.86,276.733,56.903,277.78,58.564,280.727"/>
							<path style="fill-rule:evenodd;clip-rule:evenodd;fill:#5E3A17;" d="M67.854,282.272c-0.631-1.076-0.6-2.431-1.313-3.487
								c-0.664-0.983-1.506-1.17-1.65-1.357c1.002-0.249,1.603,0.022,2.396,0.847C68.301,279.326,67.023,280.732,67.854,282.272"/>
							<path style="fill-rule:evenodd;clip-rule:evenodd;fill:#5E3A17;" d="M63.983,286.738c-0.347-2.169-1.415-5.077-2.458-6.999
								C63.234,281.681,63.93,284.575,63.983,286.738"/>
							<path style="fill-rule:evenodd;clip-rule:evenodd;fill:#5E3A17;" d="M63.2,278.618c1.845,1.424,3.507,5.831,2.532,7.84
								C65.891,284.694,64.885,280.901,63.2,278.618"/>
						</g>
						<g>
							<path style="fill-rule:evenodd;clip-rule:evenodd;fill:#F2B033;" d="M42.796,246.93c7.203,6.092,13.149,13.294,19.354,20.268
								c-3.164,3.61-6.327,7.222-10.148,10.096c-7.251-5.616-14.375-12.247-20.196-19.649c-2.313-2.939-5.326-6.155-6.101-10.389
								c-0.089-0.482-0.081-1.957,0.025-2.673c0.613-4.172,3.555-8.512,5.697-12.098c4.335-7.258,9.438-13.885,15.536-19.271
								c3.284-2.899,6.526-6.417,11.04-7.415c5.347-1.18,6.297,6.186,4.402,10.218C56.864,227.804,49.2,237.62,42.796,246.93z"/>
							<path style="fill:#E2801E;" d="M60.684,206.02c1.593,2.176,1.564,6.2,0.334,8.817c-5.535,11.772-13.185,21.577-19.584,30.876
								c0.48,0.349,0.939,0.723,1.379,1.118c0.017,0,0.036,0,0.053,0c6.39-9.283,14.019-19.069,19.54-30.815
								C63.925,212.787,63.614,207.422,60.684,206.02z"/>
							<path style="fill:#E2801E;" d="M34.111,257.912c-2.312-2.94-5.324-6.155-6.099-10.39c-0.088-0.482-0.081-1.956,0.026-2.673
								c0.611-4.171,3.554-8.512,5.696-12.099c4.336-7.258,9.436-13.885,15.536-19.271c3.284-2.899,6.526-6.417,11.04-7.415
								c0.118-0.025,0.23-0.041,0.343-0.06c-0.722-0.337-1.6-0.438-2.649-0.207c-4.515,0.998-7.756,4.516-11.04,7.415
								c-6.098,5.387-11.2,12.014-15.536,19.271c-2.142,3.587-5.084,7.926-5.697,12.098c-0.106,0.716-0.114,2.191-0.025,2.673
								c0.774,4.234,3.788,7.45,6.101,10.389c4.675,5.947,10.195,11.382,15.943,16.207C42.834,268.865,38.122,263.01,34.111,257.912
								z"/>
							<polygon style="fill:#E2801E;" points="42.796,246.93 38.635,243.817 44.219,244.882 							"/>
						</g>
					</g>
				</g>
				<g>
					<g>
						<g>
							<g>
								<g>
									<g>
										<path style="fill-rule:evenodd;clip-rule:evenodd;fill:#F9E2C7;" d="M184.39,396.555c0,0,2.014,10.043,4.008,11.976
											c0,0-3.791,2.779-11.362-2.087l-2.534-9.004L184.39,396.555z"/>
										<path style="fill-rule:evenodd;clip-rule:evenodd;fill:#D8B99C;" d="M174.502,397.438
											c1.145,2.205,8.303,2.469,10.091,0.424L174.502,397.438"/>
									</g>
									<path style="fill-rule:evenodd;clip-rule:evenodd;fill:#C84513;" d="M175.372,401.307c3.917-0.047,7.807-0.064,11.517,0.1
										c0.405-0.065,0.129,0.564,0.214,0.821c0.833,2.188,3.203,3.794,5.496,4.678c3.511,1.358,7.904,1.633,7.872,6.304
										c-0.244,0.379-1.046,0.216-1.642,0.221c-8.61,0.081-17.476-0.128-26.123-0.066c0.067-2.192,0.655-4.153,1.076-6.076
										c0.42-1.927,0.854-3.778,1.387-5.669C175.162,401.444,175.242,401.353,175.372,401.307"/>
								</g>
								<g>
									<g>
										<path style="fill-rule:evenodd;clip-rule:evenodd;fill:#F9E2C7;" d="M140.977,396.309c0,0,0.534,6.897,1.512,10.174
											c-2.279,2.136-10.151,4.8-12.464,0.89c0.656-0.242,1.198-0.874,1.438-2.084c0.501-2.57-0.374-4.979-0.673-8.18
											C134.14,397.177,137.755,396.361,140.977,396.309"/>
										<path style="fill-rule:evenodd;clip-rule:evenodd;fill:#D8B99C;" d="M141.115,397.853
											c-1.068,1.347-6.938,3.232-10.325,0.087c0,0,10.09-1.628,10.187-1.631"/>
									</g>
									<path style="fill-rule:evenodd;clip-rule:evenodd;fill:#C84513;" d="M142.442,401.315c-3.93-0.035-7.831-0.04-11.551,0.132
										c-0.405-0.065-0.126,0.567-0.211,0.824c-0.829,2.196-3.201,3.815-5.499,4.706c-3.517,1.37-7.922,1.66-7.879,6.343
										c0.246,0.378,1.051,0.213,1.65,0.217c8.632,0.056,17.524-0.176,26.194-0.135c-0.072-2.202-0.667-4.165-1.095-6.091
										c-0.425-1.934-0.866-3.788-1.404-5.682C142.653,401.452,142.571,401.361,142.442,401.315"/>
								</g>
							</g>
							<g>
								<path style="fill-rule:evenodd;clip-rule:evenodd;fill:#131E66;" d="M118.987,264.113
									c13.655,2.192,27.082,4.617,40.79,6.762c2.762,24.057,7.562,38.092,12.257,60.457c4.693,22.391,9.755,45.688,16.272,66.525
									l-15.703,0.021c-14.138-24.862-32.939-109.168-32.875-106.998c0.551,18.879-0.147,25.993,0.579,44.849
									c0.838,21.751,1.167,40.549,1.795,62.19l-13.84,0.019c-6.99-33.112-9.625-56.399-11.237-95.391
									c-0.533-12.916-0.082-26.403,1.849-38.1C118.866,264.289,118.855,264.129,118.987,264.113"/>
							</g>
							<path style="fill:#091238;" d="M139.101,277.701c0.141,4.784,0.548,9.722,1.09,14.734
								c2.963,11.579,19.603,82.915,32.414,105.444l4.24-0.005C162.637,371.492,139.037,275.559,139.101,277.701z"/>
							<path style="fill:#091238;" d="M123.665,265.438c-0.01-0.159-0.021-0.318,0.11-0.334c12.068,1.938,23.966,4.046,36.027,5.993
								c-0.008-0.075-0.017-0.147-0.026-0.222c-13.707-2.145-27.134-4.569-40.79-6.762c-0.132,0.016-0.121,0.176-0.111,0.335
								c-1.931,11.697-2.382,25.184-1.849,38.1c1.612,38.992,4.247,62.279,11.237,95.391l4.581-0.007
								c-6.832-32.582-9.433-55.796-11.029-94.393C121.284,290.622,121.735,277.136,123.665,265.438z"/>
						</g>
						<path style="fill:#091238;" d="M118.826,263.733l41.751,12.227c0,0-8.898,3.44-25.769-2.201
							C120.747,269.054,118.826,263.733,118.826,263.733"/>
					</g>
					<g>
						<g>
							<g>
								<g>
									<g>
										<path style="fill-rule:evenodd;clip-rule:evenodd;fill:#EDBCBC;" d="M225.364,256.574
											c0.349,2.763-9.399,6.658-12.135,6.936c-0.779-0.981-1.162-2.284-1.337-3.763c2.722-0.823,6.028-1.864,9.18-2.682
											C222.627,256.66,224.045,256.153,225.364,256.574"/>
										<path style="fill-rule:evenodd;clip-rule:evenodd;fill:#DD9999;" d="M224.773,256.454
											c-1.416,2.096-11.826,7.056-12.883,3.658c-0.19-0.619,1.835-1.09,2.664-1.337c1.044-0.313,2.037-0.573,3.111-0.855
											C220.735,257.108,222.926,256.466,224.773,256.454"/>
									</g>
									<g>
										<path style="fill-rule:evenodd;clip-rule:evenodd;fill:#ED8E26;" d="M174.112,214.518
											c7.411,3.042,7.75,14.858,6.646,24.027c-0.941,7.78-2.947,14.593-5.015,19.552c11.307-0.664,23.627-0.499,35.7-0.534
											c0.315,0.894,2.589,6.355,2.589,6.355c-0.579,0.534-17.337,5.32-23.311,6.421c-4.204,0.771-9.179,1.45-13.178,1.595
											c-5.348,0.192-10.044-0.119-13.042-1.926c3.122-11.202,7.933-23.198,10.616-35.462c1.451-6.6,1.781-14.552-0.857-19.664
											c-0.052-0.102-0.126-0.182-0.126-0.182L174.112,214.518z"/>
										<path style="fill:#D87819;" d="M190.718,268.471c-4.205,0.774-9.182,1.451-13.178,1.596
											c-5.083,0.183-9.572-0.091-12.578-1.668c-0.156,0.537-0.311,1.075-0.463,1.609c2.999,1.808,7.692,2.118,13.043,1.926
											c3.996-0.143,8.973-0.825,13.177-1.595c5.975-1.098,22.733-5.888,23.308-6.422c0,0-0.276-0.671-0.653-1.58
											C210.158,263.519,196.087,267.484,190.718,268.471"/>
									</g>
								</g>
								<path style="fill-rule:evenodd;clip-rule:evenodd;fill:#D87819;" d="M168.4,263.122c-1.015,3.547-2.177,6.98-3.109,10.336
									c0.102-0.083,0.206-0.159,0.31-0.24c3.316-3.953,5.207-8.955,7.019-14.775c1.366-4.386,2.506-9.195,3.253-14.031
									c0.737-4.782,1.453-10.46,1.338-15.762c-0.109-5.235-0.414-10.677-3.173-14.238c0,0-0.153-0.023-0.114,0.215
									c3.239,5.889,1.404,14.757,0.301,21.907C172.773,245.949,170.797,254.755,168.4,263.122"/>
							</g>
							<g>
								<g>
									<polygon style="fill:#BBF2D1;" points="204.838,257.169 206.346,254.439 204.271,254.102 									"/>
									
										<rect x="194.663" y="240.7" transform="matrix(0.1602 -0.9871 0.9871 0.1602 -64.4991 407.6904)" style="fill:#131E66;" width="25.368" height="2.101"/>
									<path style="fill:#FFFFFF;" d="M208.581,227.648c0.093-0.574,0.631-0.962,1.205-0.87c0.573,0.093,0.961,0.634,0.867,1.207
										l-0.23,1.416l-2.073-0.338L208.581,227.648z"/>
								</g>
								<path style="fill:#5E3A17;" d="M198.933,270.945c0.7,0.826,2.019,1.169,2.956,0.75l28.527-15.275
									c1.109-0.675,1.567-2.078,1.01-3.115l-11.275-17.481c-0.673-0.868-2.208-0.891-3.418-0.07l-31.333,19.4
									c-1.037,0.569-1.206,1.548-0.388,2.204L198.933,270.945z"/>
							</g>
						</g>
						<path style="fill-rule:evenodd;clip-rule:evenodd;fill:#ED8E26;" d="M156.254,203.593c1.118,4.68,4.508,8.453,9.535,7.571
							c2.307-0.404,3.078-1.75,3.078-1.75c1.376,0.877,2.548,1.774,3.462,2.697c2.775,2.791,3.69,6.774,3.698,12.123
							c0.009,6.722-1.27,13.094-2.43,18.671c-2.373,11.406-5.987,23.168-8.542,33.537c-8.572-0.803-16.566-3.118-24.262-5.419
							c-7.693-2.3-15.313-4.392-22.36-7.464c2.685-14.731,7.77-30.535,12.753-44.172c1.686-4.623,3.79-9.156,6.66-12.273
							C141.779,202.841,149.16,201.356,156.254,203.593"/>
						<path style="fill:#F7CD1C;" d="M172.354,212.032c-0.645-0.651-1.424-1.29-2.303-1.918c0.482,8.898-1.32,28.541-14.82,66.587
							c3.117,0.654,6.301,1.175,9.567,1.481c2.614-10.612,6.313-22.653,8.743-34.326c1.185-5.708,2.495-12.23,2.485-19.111
							C176.02,219.272,175.195,214.888,172.354,212.032z"/>
						<path style="fill:#F7CD1C;" d="M154.372,203.087c-6.519-1.482-13.829,0.008-17.422,4.133
							c-2.851,3.271-5.092,7.83-6.818,12.563c-5.1,13.958-10.303,30.133-13.052,45.211c7.212,3.145,15.011,5.286,22.886,7.64
							c2.44,0.729,4.909,1.459,7.417,2.145C160.283,222.148,155.683,205.988,154.372,203.087z"/>
						<g>
							<g>
								<path style="fill-rule:evenodd;clip-rule:evenodd;fill:#F2B033;" d="M157.046,248.997c11.531-1.753,23.02-3.543,35.686-4.16
									c0.255,4.043,0.806,7.786,1.08,11.808c-8.236,1.01-14.447,3.404-20.96,5.601c-6.488,2.189-12.485,5.457-20.957,5.467
									c-3.529,0.004-5.997-0.9-7.831-2.509c-2.466-2.168-4.588-7.048-5.852-11.138c-3.104-10.038-5.093-25.148-3.235-37.946
									c0.85-5.852,2.517-11.17,7.677-12.616c3.799-1.06,6.658,2.12,7.703,4.768c0.569,1.435,0.718,3.159,1.069,4.906
									C153.618,224.037,155.478,237.689,157.046,248.997"/>
								<g>
									<path style="fill:#E2801E;" d="M157.047,249.538c-1.569-11.309-3.153-24.852-5.346-35.71
										c-0.352-1.746-0.775-4.12-1.344-5.556c-1.045-2.647-3.904-5.828-7.703-4.768c-0.184,0.05-0.352,0.119-0.529,0.181
										c3.209-0.196,5.601,2.59,6.536,4.958c0.569,1.438,0.833,3.75,1.188,5.498c2.191,10.855,3.927,24.416,5.496,35.725
										C155.344,249.865,157.062,249.538,157.047,249.538"/>
									<path style="fill-rule:evenodd;clip-rule:evenodd;fill:#E2801E;" d="M193.811,257.185c-0.03-0.447-0.073-0.882-0.11-1.323
										c-5.575,1.33-13.609,3.352-19.82,5.447c-5.985,2.019-21.719,6.429-27.169,0.847c-2.626-2.692-4.637-6.187-5.982-9.811
										c-4.581-12.353-5.529-36.144-3.177-44.415c0.2-0.454,0.314-1.024,0.652-1.363c-3.583,3.577-3.895,17.917-3.895,17.94
										c-0.197,6.059,0.282,12.283,1.177,18.006c0.584,4.004,1.401,7.8,2.494,11.301c0.079,0.263,0.153,0.534,0.232,0.79
										c1.265,4.088,3.384,8.97,5.852,11.138c0.082,0.072,0.172,0.136,0.257,0.205c0.464,0.433,0.951,0.815,1.468,1.119
										c1.977,1.159,4.659,1.343,7.3,1.186c2.359-0.143,5.038-0.364,7.384-1.142h-0.005
										C164.894,265.961,193.811,257.185,193.811,257.185"/>
									<path style="fill-rule:evenodd;clip-rule:evenodd;fill:#E2801E;" d="M156.689,246.972l0.357,2.566
										c0,0-3.192,0.616-4.909,0.935C153.768,248.556,156.689,246.972,156.689,246.972"/>
								</g>
							</g>
							<g>
								<path style="fill-rule:evenodd;clip-rule:evenodd;fill:#F9E2C7;" d="M202.683,242.445c0.858,0.976-1.098,2.731-2.479,3.813
									c3.405,0.096,8.053,1.213,10.98,2.677c0.9,0.449,2.508,1.093,2.389,1.987c-0.152,1.16-2.157,0.755-3.184,0.534
									c-1.407-0.302-2.207-0.691-3.453-0.79c0.076,0.222,0.489,1.301,0.003,1.857c-0.396,0.459-0.781,0.456-1.457,0.399
									c0.11,0.863,0.076,1.181-0.53,1.726c-0.716,0.648-2.123,0.137-2.123,0.137c-0.229,0.501-0.744,1.222-1.367,1.632
									c-1.973,1.289-4.83,0.013-7.652,0.769c-0.42-3.875-0.552-8.037-1.077-11.807c1.87-0.239,3.154-0.534,4.775-1.202
									c1.523-0.626,2.749-1.734,3.978-2.127C201.782,241.954,202.369,242.09,202.683,242.445"/>
								<path style="fill-rule:evenodd;clip-rule:evenodd;fill:#D8B99C;" d="M202.855,242.751c0.421,1.235-1.583,3.707-4.09,3.813
									c0.843-0.324,2.309-1.586,2.768-2.589c0.287-0.634,0.212-1.773-0.777-1.62C201.739,241.634,202.621,242.05,202.855,242.751"
									/>
								<path style="fill-rule:evenodd;clip-rule:evenodd;fill:#D8B99C;" d="M205.797,249.8c2.131,0.837,2.116,3.684-0.314,3.123
									c0.19,0.391,0.068,1.059-0.132,1.327c-0.643,0.874-1.669,0.875-2.521,0.537c-0.469,1.247-1.632,2.208-3.447,2.391
									c-1.285,0.129-4.091,0.054-5.572,0.008c0,0,1.281-0.256,1.986-0.402c2.2-0.45,5.16-0.359,5.309-2.528
									c0.938,0.054,1.643-0.046,2.124-0.535c0.311-0.314,0.718-1.083,0.623-1.754C204.778,251.698,206.254,251.025,205.797,249.8"
									/>
							</g>
						</g>
						<g>
							<g>
								<g>
									<path style="fill-rule:evenodd;clip-rule:evenodd;fill:#F9E2C7;" d="M170.991,204.167l-1.27,4.942
										c-3.18,4.117-9.83,2.022-12.126-0.943c-1.496-1.928-0.918-2.982-0.391-5.002c0.717-2.738,1.422-5.551,2.212-8.172
										c-0.936-0.3-2.261-1.357-2.564-2.878c-0.229-1.155,0.446-2.449,1.674-2.544c-0.296-5.811,1.605-10.527,7.441-12.099
										c5.488-1.48,11.192,0.956,12.971,6.026c2.328,6.648,1.235,14.39-1.465,18.052
										C176.23,203.24,173.783,204.973,170.991,204.167"/>
									<path style="fill-rule:evenodd;clip-rule:evenodd;fill:#131E66;" d="M175.915,178.951c1.612-0.013,3.652-0.789,4.267,0.457
										c0.998,2.014,0.436,4.091-2.094,4.757c-4.462,1.175-8.586,0.071-10.395-2.278c-0.118,0.701-0.307,1.419-0.687,2.175
										c-0.779,1.538-2.825,2.57-3.341,4.553c-0.427,1.636,0.472,4.604-0.974,4.924c-1.24,0.278-1.605-2.16-2.622-3.129
										c-0.52-0.496-0.84-0.568-1.542-0.84c-2.026-3.008-1.776-6.503,0.787-8.501c0.976-0.762,1.331-0.635,1.771-1.013
										c0.682-0.586,0.919-1.355,1.399-1.815c1.136-1.09,2.575-1.697,5.175-2.112c1.647-0.264-0.137,1.099,1.632,0.913
										C173.511,176.593,180.582,176.077,175.915,178.951"/>
									<path style="fill-rule:evenodd;clip-rule:evenodd;fill:#D8B99C;" d="M164.533,199.944c1.562,1.805,4.247,3.769,6.46,4.223
										l-0.669,2.594C168.857,206.496,164.938,204.795,164.533,199.944"/>
									<path style="fill-rule:evenodd;clip-rule:evenodd;fill:#131E66;" d="M180.773,195.124c-0.51,1.434-2.001,2.205-3.88,1.735
										c-0.768-0.19-1.233-0.894-1.415-0.868c-0.211,0.027-0.04,0.664-1.28,1.378c-1.765,1.01-4.121,0.438-4.574-1.191
										c2.503,0.24,3.503-2.685,5.716-1.9c1.666-1.172,2.522,0.332,3.789,0.707C179.757,195.171,180.22,195.061,180.773,195.124"
										/>
									<path style="fill-rule:evenodd;clip-rule:evenodd;fill:#131E66;" d="M179.632,186.049
										c-0.002,0.324-1.015,0.578-2.259,0.565c-1.242-0.013-2.247-0.286-2.246-0.61c0.002-0.325,1.012-0.576,2.256-0.565
										C178.628,185.453,179.635,185.725,179.632,186.049"/>
									<path style="fill-rule:evenodd;clip-rule:evenodd;fill:#131E66;" d="M178.827,189.544c0.059,0.552-0.222,1.035-0.625,1.078
										c-0.403,0.043-0.782-0.37-0.838-0.923c-0.06-0.552,0.22-1.036,0.623-1.079
										C178.389,188.576,178.769,188.989,178.827,189.544"/>
									<path style="fill-rule:evenodd;clip-rule:evenodd;fill:#131E66;" d="M172.77,186.334c0.089,0.308-0.816,0.832-2.013,1.16
										c-1.2,0.331-2.243,0.344-2.328,0.031c-0.086-0.313,0.816-0.833,2.015-1.163
										C171.644,186.032,172.685,186.018,172.77,186.334"/>
									<path style="fill-rule:evenodd;clip-rule:evenodd;fill:#131E66;" d="M171.367,190.725c0.059,0.553-0.218,1.036-0.623,1.079
										c-0.403,0.043-0.782-0.371-0.837-0.925c-0.063-0.55,0.221-1.035,0.625-1.078
										C170.934,189.758,171.309,190.172,171.367,190.725"/>
									<path style="fill:#D8B99C;" d="M175.182,194.378c0.019-0.001,0.037-0.003,0.056-0.01c0.51-0.134,0.851-0.372,1.054-0.725
										c0.4-0.712,0.11-1.706-0.256-2.968c-0.233-0.8-0.5-1.709-0.628-2.691c-0.024-0.18-0.192-0.311-0.369-0.284
										c-0.181,0.024-0.31,0.189-0.286,0.369c0.136,1.033,0.41,1.966,0.648,2.792c0.313,1.066,0.582,1.986,0.32,2.456
										c-0.111,0.191-0.322,0.326-0.65,0.413c-0.177,0.046-0.281,0.227-0.236,0.404
										C174.875,194.29,175.024,194.391,175.182,194.378"/>
									<path style="fill:#D8B99C;" d="M174.9,198.563c-0.285-0.046-0.602-0.135-0.952-0.291c-0.145-0.065-0.211-0.237-0.148-0.383
										c0.065-0.148,0.239-0.214,0.384-0.148c1.563,0.688,2.232-0.176,2.261-0.216c0.096-0.126,0.277-0.154,0.406-0.061
										c0.131,0.095,0.156,0.273,0.066,0.402C176.883,197.912,176.249,198.764,174.9,198.563"/>
								</g>
								<g>
									<path style="fill-rule:evenodd;clip-rule:evenodd;fill:#FFFFFF;" d="M164.32,209.44c-1.781,0.994,0.042,6.978,0.961,7.257
										c0.604,0.182,4.173-2.752,5.59-3.833c0.595-0.455,1.39-1.044,1.52-1.867c0.126-0.808-0.826-2.336-1.205-2.979
										c-0.376-0.637-1.261-0.318-2.072-0.111C168.583,208.044,165.143,209.065,164.32,209.44z"/>
									<path style="fill-rule:evenodd;clip-rule:evenodd;fill:#FFFFFF;" d="M163.744,209.256c1.104,1.836-3.608,6.352-4.583,6.128
										c-0.637-0.147-4.696-6.699-5.425-8.424c-0.306-0.725-0.723-1.678-0.42-2.496c0.299-0.803,1.942-1.703,2.614-2.093
										c0.667-0.386,1.304,0.367,1.932,0.978C158.273,203.75,163.194,208.486,163.744,209.256z"/>
								</g>
							</g>
							<g>
								<path style="fill:#F7CD1C;" d="M180.656,180.887c0,0-7.03,2.576-14.071,2.311c-7.043-0.263-9.341,2.024-9.341,2.024
									l-0.573-2.759c-1.341-6.436,2.79-12.738,9.226-14.077c6.435-1.339,12.737,2.791,14.077,9.225L180.656,180.887z"/>
								<path style="fill:#FBB020;" d="M164.814,168.667c-0.378,0.116-0.748,0.25-1.107,0.401c5.61-0.058,10.706,4.007,11.935,9.911
									l0.658,3.156c0.851-0.198,1.606-0.399,2.241-0.58l-0.635-3.047C176.592,172.201,170.865,167.991,164.814,168.667"/>
								<g>
									<path style="fill:#FFFFFF;" d="M158.987,182.21L158.987,182.21c-0.27,0.056-0.532-0.116-0.587-0.385l-0.25-1.202
										c-0.057-0.268,0.116-0.531,0.385-0.586c0.269-0.057,0.531,0.115,0.587,0.384l0.25,1.202
										C159.429,181.891,159.256,182.156,158.987,182.21"/>
									<path style="fill:#FFFFFF;" d="M160.495,181.897L160.495,181.897c-0.269,0.056-0.532-0.116-0.588-0.386l-0.249-1.203
										c-0.057-0.268,0.117-0.53,0.385-0.585c0.269-0.057,0.531,0.115,0.587,0.384l0.251,1.202
										C160.936,181.578,160.763,181.842,160.495,181.897"/>
									<path style="fill:#FFFFFF;" d="M162.001,181.583L162.001,181.583c-0.269,0.055-0.532-0.116-0.587-0.384l-0.251-1.204
										c-0.056-0.269,0.117-0.53,0.386-0.587c0.268-0.056,0.53,0.117,0.588,0.386l0.249,1.202
										C162.443,181.265,162.27,181.528,162.001,181.583"/>
								</g>
								<g>
									<path style="fill:#FBB020;" d="M156.319,184.584c0.102,0.54,0.631,0.893,1.182,0.789l22.975-4.327
										c0.551-0.104,0.916-0.626,0.814-1.167l0,0c-0.102-0.541-0.632-0.895-1.182-0.791l-22.975,4.328
										C156.581,183.52,156.218,184.043,156.319,184.584L156.319,184.584z"/>
									<path style="fill:#FBB020;" d="M166.318,185.425l16.971-3.389c0.664-0.124,1.12-0.666,1.017-1.208l0,0
										c-0.102-0.543-0.718-0.655-1.386-0.755c-0.661-0.101-2.204-0.277-2.204-0.277l-21.197,4.184
										C159.52,183.98,164.895,185.694,166.318,185.425z"/>
								</g>
							</g>
						</g>
					</g>
				</g>
			</g>
		</g>
	</g>
</g>
</svg>
